solid OpenSCAD_Model
  facet normal 0 -1 0
    outer loop
      vertex 1.64999 0.4 1.35001
      vertex 0.799997 0.4 3
      vertex 0 0.4 3
    endloop
  endfacet
  facet normal 0 -1 0
    outer loop
      vertex 0.799997 0.4 3
      vertex 1.64999 0.4 1.35001
      vertex 1.64999 0.4 3
    endloop
  endfacet
  facet normal 0 0 -1
    outer loop
      vertex 63.3 0 3
      vertex 1.65 0.4 3
      vertex 63.7 0.4 3
    endloop
  endfacet
  facet normal 0 0 -1
    outer loop
      vertex 1.65 0.4 3
      vertex 1.64999 0.4 3
      vertex 1.65 29.6 3
    endloop
  endfacet
  facet normal 0 0 -1
    outer loop
      vertex 1.2 0 3
      vertex 1.65 0.4 3
      vertex 63.3 0 3
    endloop
  endfacet
  facet normal -0 0 -1
    outer loop
      vertex 1.65 0.4 3
      vertex 1.2 0 3
      vertex 1.64999 0.4 3
    endloop
  endfacet
  facet normal -0 0 -1
    outer loop
      vertex 1.64999 0.4 3
      vertex 1.2 0 3
      vertex 0.799997 0.4 3
    endloop
  endfacet
  facet normal 0 0 -1
    outer loop
      vertex 1.65 29.6 3
      vertex 63.3 30 3
      vertex 63.7 29.6 3
    endloop
  endfacet
  facet normal 0 0 -1
    outer loop
      vertex 1.64999 29.6 3
      vertex 1.65 29.6 3
      vertex 1.64999 0.4 3
    endloop
  endfacet
  facet normal 0 0 -1
    outer loop
      vertex 1.2 30 3
      vertex 1.65 29.6 3
      vertex 1.64999 29.6 3
    endloop
  endfacet
  facet normal 0 0 -1
    outer loop
      vertex 1.65 29.6 3
      vertex 1.2 30 3
      vertex 63.3 30 3
    endloop
  endfacet
  facet normal 0 -0 -1
    outer loop
      vertex 1.2 30 3
      vertex 1.64999 29.6 3
      vertex 0.800001 29.6 3
    endloop
  endfacet
  facet normal -0 0 1
    outer loop
      vertex 0 29.6 3
      vertex 0 28.8 3
      vertex 0.800001 29.6 3
    endloop
  endfacet
  facet normal 0 0 1
    outer loop
      vertex 0 1.2 3
      vertex 0 0.4 3
      vertex 0.799997 0.4 3
    endloop
  endfacet
  facet normal 0 0 1
    outer loop
      vertex 64.5 1.2 3
      vertex 63.7 0.4 3
      vertex 64.5 0.4 3
    endloop
  endfacet
  facet normal 0 0 1
    outer loop
      vertex 64.5 29.6 3
      vertex 63.7 29.6 3
      vertex 64.5 28.8 3
    endloop
  endfacet
  facet normal 1 -0 0
    outer loop
      vertex 1.64999 0.4 3
      vertex 1.64999 29.6 1.35001
      vertex 1.64999 29.6 3
    endloop
  endfacet
  facet normal 1 0 0
    outer loop
      vertex 1.64999 29.6 1.35001
      vertex 1.64999 0.4 3
      vertex 1.64999 0.4 1.35001
    endloop
  endfacet
  facet normal 0 1 -0
    outer loop
      vertex 1.64999 29.6 1.35001
      vertex 0.800001 29.6 3
      vertex 1.64999 29.6 3
    endloop
  endfacet
  facet normal 0 1 0
    outer loop
      vertex 0.800001 29.6 3
      vertex 1.64999 29.6 1.35001
      vertex 0 29.6 3
    endloop
  endfacet
  facet normal -0.707107 0 -0.707107
    outer loop
      vertex 1.64999 29.6 1.35001
      vertex 0 28.8 3
      vertex 0 29.6 3
    endloop
  endfacet
  facet normal -0.707107 0 -0.707107
    outer loop
      vertex 1.64999 29.6 1.35001
      vertex 0 1.2 3
      vertex 0 28.8 3
    endloop
  endfacet
  facet normal -0.707107 0 -0.707107
    outer loop
      vertex 1.64999 0.4 1.35001
      vertex 0 1.2 3
      vertex 1.64999 29.6 1.35001
    endloop
  endfacet
  facet normal -0.707107 -0 -0.707107
    outer loop
      vertex 0 1.2 3
      vertex 1.64999 0.4 1.35001
      vertex 0 0.4 3
    endloop
  endfacet
  facet normal 0 -1 0
    outer loop
      vertex 62.85 0.4 1.35001
      vertex 63.7 0.4 3
      vertex 1.65 0.4 3
    endloop
  endfacet
  facet normal 0 -1 -0
    outer loop
      vertex 63.7 0.4 3
      vertex 62.85 0.4 1.35001
      vertex 64.5 0.4 3
    endloop
  endfacet
  facet normal 0 -1 0
    outer loop
      vertex 1.65 0.4 4.44089e-16
      vertex 62.85 0.4 1.35001
      vertex 1.65 0.4 3
    endloop
  endfacet
  facet normal 0 -1 -0
    outer loop
      vertex 62.85 0.4 1.35001
      vertex 1.65 0.4 4.44089e-16
      vertex 62.85 0.4 4.44089e-16
    endloop
  endfacet
  facet normal 0.707105 0 -0.707109
    outer loop
      vertex 62.85 0.4 1.35001
      vertex 64.5 1.2 3
      vertex 64.5 0.4 3
    endloop
  endfacet
  facet normal 0.707105 0 -0.707109
    outer loop
      vertex 64.5 1.2 3
      vertex 62.85 0.4 1.35001
      vertex 64.5 28.8 3
    endloop
  endfacet
  facet normal 0.707105 0 -0.707109
    outer loop
      vertex 62.85 29.6 1.35001
      vertex 64.5 28.8 3
      vertex 62.85 0.4 1.35001
    endloop
  endfacet
  facet normal 0.707105 0 -0.707109
    outer loop
      vertex 64.5 28.8 3
      vertex 62.85 29.6 1.35001
      vertex 64.5 29.6 3
    endloop
  endfacet
  facet normal 0 1 0
    outer loop
      vertex 62.85 29.6 1.35001
      vertex 63.7 29.6 3
      vertex 64.5 29.6 3
    endloop
  endfacet
  facet normal 0 1 0
    outer loop
      vertex 63.7 29.6 3
      vertex 62.85 29.6 1.35001
      vertex 1.65 29.6 3
    endloop
  endfacet
  facet normal 0 1 0
    outer loop
      vertex 1.65 29.6 4.44089e-16
      vertex 62.85 29.6 1.35001
      vertex 62.85 29.6 4.44089e-16
    endloop
  endfacet
  facet normal 0 1 0
    outer loop
      vertex 62.85 29.6 1.35001
      vertex 1.65 29.6 4.44089e-16
      vertex 1.65 29.6 3
    endloop
  endfacet
  facet normal 0.707107 -0.707107 0
    outer loop
      vertex 63.7 0.4 3
      vertex 63.3 0 5.4
      vertex 63.3 0 3
    endloop
  endfacet
  facet normal 0.707107 -0.707107 1.39019e-15
    outer loop
      vertex 63.3 0 5.4
      vertex 63.7 0.4 3
      vertex 64.5 1.2 5.4
    endloop
  endfacet
  facet normal 0.707107 -0.707107 0
    outer loop
      vertex 64.5 1.2 5.4
      vertex 63.7 0.4 3
      vertex 64.5 1.2 3
    endloop
  endfacet
  facet normal -1 0 0
    outer loop
      vertex 0 1.2 3
      vertex 0 28.8 5.4
      vertex 0 28.8 3
    endloop
  endfacet
  facet normal -1 -0 0
    outer loop
      vertex 0 28.8 5.4
      vertex 0 1.2 3
      vertex 0 1.2 5.4
    endloop
  endfacet
  facet normal 0 1 -0
    outer loop
      vertex 63.3 30 3
      vertex 1.2 30 5.4
      vertex 63.3 30 5.4
    endloop
  endfacet
  facet normal 0 1 0
    outer loop
      vertex 1.2 30 5.4
      vertex 63.3 30 3
      vertex 1.2 30 3
    endloop
  endfacet
  facet normal -0 0 1
    outer loop
      vertex 6.05 14 5.4
      vertex 12.45 12 5.4
      vertex 12.45 14 5.4
    endloop
  endfacet
  facet normal 0 0 1
    outer loop
      vertex 12.45 12 5.4
      vertex 6.05 14 5.4
      vertex 6.05 12 5.4
    endloop
  endfacet
  facet normal -0 0 1
    outer loop
      vertex 17.05 14 5.4
      vertex 23.45 12 5.4
      vertex 23.45 14 5.4
    endloop
  endfacet
  facet normal 0 0 1
    outer loop
      vertex 23.45 12 5.4
      vertex 17.05 14 5.4
      vertex 17.05 12 5.4
    endloop
  endfacet
  facet normal -0 0 1
    outer loop
      vertex 28.05 14 5.4
      vertex 34.45 12 5.4
      vertex 34.45 14 5.4
    endloop
  endfacet
  facet normal 0 0 1
    outer loop
      vertex 34.45 12 5.4
      vertex 28.05 14 5.4
      vertex 28.05 12 5.4
    endloop
  endfacet
  facet normal -0 0 1
    outer loop
      vertex 39.05 14 5.4
      vertex 45.45 12 5.4
      vertex 45.45 14 5.4
    endloop
  endfacet
  facet normal 0 0 1
    outer loop
      vertex 45.45 12 5.4
      vertex 39.05 14 5.4
      vertex 39.05 12 5.4
    endloop
  endfacet
  facet normal -0 0 1
    outer loop
      vertex 50.05 14 5.4
      vertex 56.45 12 5.4
      vertex 56.45 14 5.4
    endloop
  endfacet
  facet normal 0 0 1
    outer loop
      vertex 56.45 12 5.4
      vertex 50.05 14 5.4
      vertex 50.05 12 5.4
    endloop
  endfacet
  facet normal 0 0 1
    outer loop
      vertex 56.45 21 5.4
      vertex 64.5 28.8 5.4
      vertex 63.3 30 5.4
    endloop
  endfacet
  facet normal 0 0 1
    outer loop
      vertex 64.5 28.8 5.4
      vertex 56.45 14 5.4
      vertex 64.5 1.2 5.4
    endloop
  endfacet
  facet normal 0 0 1
    outer loop
      vertex 64.5 28.8 5.4
      vertex 56.45 21 5.4
      vertex 56.45 14 5.4
    endloop
  endfacet
  facet normal 0 0 1
    outer loop
      vertex 63.3 30 5.4
      vertex 50.05 21 5.4
      vertex 56.45 21 5.4
    endloop
  endfacet
  facet normal 0 0 1
    outer loop
      vertex 45.45 14 5.4
      vertex 50.05 14 5.4
      vertex 50.05 21 5.4
    endloop
  endfacet
  facet normal 0 0 1
    outer loop
      vertex 50.05 14 5.4
      vertex 45.45 14 5.4
      vertex 50.05 12 5.4
    endloop
  endfacet
  facet normal 0 0 1
    outer loop
      vertex 45.45 14 5.4
      vertex 50.05 21 5.4
      vertex 45.45 21 5.4
    endloop
  endfacet
  facet normal 0 0 1
    outer loop
      vertex 63.3 30 5.4
      vertex 45.45 21 5.4
      vertex 50.05 21 5.4
    endloop
  endfacet
  facet normal 0 0 1
    outer loop
      vertex 63.3 30 5.4
      vertex 39.05 21 5.4
      vertex 45.45 21 5.4
    endloop
  endfacet
  facet normal 0 0 1
    outer loop
      vertex 34.45 14 5.4
      vertex 39.05 14 5.4
      vertex 39.05 21 5.4
    endloop
  endfacet
  facet normal 0 0 1
    outer loop
      vertex 39.05 14 5.4
      vertex 34.45 14 5.4
      vertex 39.05 12 5.4
    endloop
  endfacet
  facet normal 0 0 1
    outer loop
      vertex 34.45 14 5.4
      vertex 39.05 21 5.4
      vertex 34.45 21 5.4
    endloop
  endfacet
  facet normal 0 0 1
    outer loop
      vertex 63.3 30 5.4
      vertex 34.45 21 5.4
      vertex 39.05 21 5.4
    endloop
  endfacet
  facet normal -0 0 1
    outer loop
      vertex 1.2 30 5.4
      vertex 34.45 21 5.4
      vertex 63.3 30 5.4
    endloop
  endfacet
  facet normal 0 0 1
    outer loop
      vertex 23.45 14 5.4
      vertex 28.05 14 5.4
      vertex 28.05 21 5.4
    endloop
  endfacet
  facet normal 0 0 1
    outer loop
      vertex 28.05 14 5.4
      vertex 23.45 14 5.4
      vertex 28.05 12 5.4
    endloop
  endfacet
  facet normal 0 0 1
    outer loop
      vertex 23.45 14 5.4
      vertex 28.05 21 5.4
      vertex 23.45 21 5.4
    endloop
  endfacet
  facet normal 0 0 1
    outer loop
      vertex 34.45 21 5.4
      vertex 1.2 30 5.4
      vertex 28.05 21 5.4
    endloop
  endfacet
  facet normal 0 0 1
    outer loop
      vertex 28.05 21 5.4
      vertex 1.2 30 5.4
      vertex 23.45 21 5.4
    endloop
  endfacet
  facet normal 0 0 1
    outer loop
      vertex 12.45 14 5.4
      vertex 17.05 14 5.4
      vertex 17.05 21 5.4
    endloop
  endfacet
  facet normal 0 0 1
    outer loop
      vertex 17.05 14 5.4
      vertex 12.45 14 5.4
      vertex 17.05 12 5.4
    endloop
  endfacet
  facet normal 0 0 1
    outer loop
      vertex 12.45 14 5.4
      vertex 17.05 21 5.4
      vertex 12.45 21 5.4
    endloop
  endfacet
  facet normal 0 0 1
    outer loop
      vertex 23.45 21 5.4
      vertex 1.2 30 5.4
      vertex 17.05 21 5.4
    endloop
  endfacet
  facet normal 0 0 1
    outer loop
      vertex 17.05 21 5.4
      vertex 1.2 30 5.4
      vertex 12.45 21 5.4
    endloop
  endfacet
  facet normal 0 0 1
    outer loop
      vertex 0 28.8 5.4
      vertex 6.05 14 5.4
      vertex 6.05 21 5.4
    endloop
  endfacet
  facet normal 0 0 1
    outer loop
      vertex 0 1.2 5.4
      vertex 6.05 14 5.4
      vertex 0 28.8 5.4
    endloop
  endfacet
  facet normal -0 0 1
    outer loop
      vertex 0 28.8 5.4
      vertex 6.05 21 5.4
      vertex 1.2 30 5.4
    endloop
  endfacet
  facet normal 0 0 1
    outer loop
      vertex 12.45 21 5.4
      vertex 1.2 30 5.4
      vertex 6.05 21 5.4
    endloop
  endfacet
  facet normal -0 0 1
    outer loop
      vertex 56.45 12 5.4
      vertex 64.5 1.2 5.4
      vertex 56.45 14 5.4
    endloop
  endfacet
  facet normal -0 0 1
    outer loop
      vertex 56.45 5 5.4
      vertex 64.5 1.2 5.4
      vertex 56.45 12 5.4
    endloop
  endfacet
  facet normal 0 0 1
    outer loop
      vertex 64.5 1.2 5.4
      vertex 56.45 5 5.4
      vertex 63.3 0 5.4
    endloop
  endfacet
  facet normal -0 0 1
    outer loop
      vertex 50.05 5 5.4
      vertex 63.3 0 5.4
      vertex 56.45 5 5.4
    endloop
  endfacet
  facet normal 0 0 1
    outer loop
      vertex 45.45 12 5.4
      vertex 50.05 12 5.4
      vertex 45.45 14 5.4
    endloop
  endfacet
  facet normal 0 0 1
    outer loop
      vertex 50.05 12 5.4
      vertex 45.45 12 5.4
      vertex 50.05 5 5.4
    endloop
  endfacet
  facet normal 0 0 1
    outer loop
      vertex 45.45 5 5.4
      vertex 50.05 5 5.4
      vertex 45.45 12 5.4
    endloop
  endfacet
  facet normal -0 0 1
    outer loop
      vertex 45.45 5 5.4
      vertex 63.3 0 5.4
      vertex 50.05 5 5.4
    endloop
  endfacet
  facet normal -0 0 1
    outer loop
      vertex 39.05 5 5.4
      vertex 63.3 0 5.4
      vertex 45.45 5 5.4
    endloop
  endfacet
  facet normal 0 0 1
    outer loop
      vertex 34.45 12 5.4
      vertex 39.05 12 5.4
      vertex 34.45 14 5.4
    endloop
  endfacet
  facet normal 0 0 1
    outer loop
      vertex 39.05 12 5.4
      vertex 34.45 12 5.4
      vertex 39.05 5 5.4
    endloop
  endfacet
  facet normal 0 0 1
    outer loop
      vertex 34.45 5 5.4
      vertex 39.05 5 5.4
      vertex 34.45 12 5.4
    endloop
  endfacet
  facet normal -0 0 1
    outer loop
      vertex 34.45 5 5.4
      vertex 63.3 0 5.4
      vertex 39.05 5 5.4
    endloop
  endfacet
  facet normal 0 0 1
    outer loop
      vertex 1.2 0 5.4
      vertex 34.45 5 5.4
      vertex 28.05 5 5.4
    endloop
  endfacet
  facet normal 0 0 1
    outer loop
      vertex 23.45 12 5.4
      vertex 28.05 12 5.4
      vertex 23.45 14 5.4
    endloop
  endfacet
  facet normal 0 0 1
    outer loop
      vertex 28.05 12 5.4
      vertex 23.45 12 5.4
      vertex 28.05 5 5.4
    endloop
  endfacet
  facet normal 0 0 1
    outer loop
      vertex 23.45 5 5.4
      vertex 28.05 5 5.4
      vertex 23.45 12 5.4
    endloop
  endfacet
  facet normal 0 0 1
    outer loop
      vertex 1.2 0 5.4
      vertex 28.05 5 5.4
      vertex 23.45 5 5.4
    endloop
  endfacet
  facet normal 0 0 1
    outer loop
      vertex 1.2 0 5.4
      vertex 23.45 5 5.4
      vertex 17.05 5 5.4
    endloop
  endfacet
  facet normal 0 0 1
    outer loop
      vertex 12.45 12 5.4
      vertex 17.05 12 5.4
      vertex 12.45 14 5.4
    endloop
  endfacet
  facet normal 0 0 1
    outer loop
      vertex 17.05 12 5.4
      vertex 12.45 12 5.4
      vertex 17.05 5 5.4
    endloop
  endfacet
  facet normal 0 0 1
    outer loop
      vertex 12.45 5 5.4
      vertex 17.05 5 5.4
      vertex 12.45 12 5.4
    endloop
  endfacet
  facet normal 0 0 1
    outer loop
      vertex 1.2 0 5.4
      vertex 17.05 5 5.4
      vertex 12.45 5 5.4
    endloop
  endfacet
  facet normal 0 0 1
    outer loop
      vertex 1.2 0 5.4
      vertex 12.45 5 5.4
      vertex 6.05 5 5.4
    endloop
  endfacet
  facet normal 0 0 1
    outer loop
      vertex 34.45 5 5.4
      vertex 1.2 0 5.4
      vertex 63.3 0 5.4
    endloop
  endfacet
  facet normal 0 0 1
    outer loop
      vertex 6.05 14 5.4
      vertex 0 1.2 5.4
      vertex 6.05 12 5.4
    endloop
  endfacet
  facet normal 0 0 1
    outer loop
      vertex 6.05 12 5.4
      vertex 0 1.2 5.4
      vertex 6.05 5 5.4
    endloop
  endfacet
  facet normal 0 0 1
    outer loop
      vertex 6.05 5 5.4
      vertex 0 1.2 5.4
      vertex 1.2 0 5.4
    endloop
  endfacet
  facet normal -0.707108 0.707106 0
    outer loop
      vertex 0.800001 29.6 3
      vertex 1.2 30 5.4
      vertex 1.2 30 3
    endloop
  endfacet
  facet normal -0.707106 0.707107 0
    outer loop
      vertex 0 28.8 5.4
      vertex 0.800001 29.6 3
      vertex 0 28.8 3
    endloop
  endfacet
  facet normal -0.707107 0.707107 -2.94628e-07
    outer loop
      vertex 0.800001 29.6 3
      vertex 0 28.8 5.4
      vertex 1.2 30 5.4
    endloop
  endfacet
  facet normal -0.707108 -0.707105 0
    outer loop
      vertex 0.799997 0.4 3
      vertex 0 1.2 5.4
      vertex 0 1.2 3
    endloop
  endfacet
  facet normal -0.707104 -0.707109 -0
    outer loop
      vertex 1.2 0 5.4
      vertex 0.799997 0.4 3
      vertex 1.2 0 3
    endloop
  endfacet
  facet normal -0.707107 -0.707107 8.83883e-07
    outer loop
      vertex 0.799997 0.4 3
      vertex 1.2 0 5.4
      vertex 0 1.2 5.4
    endloop
  endfacet
  facet normal 0 -1 0
    outer loop
      vertex 1.2 0 3
      vertex 63.3 0 5.4
      vertex 1.2 0 5.4
    endloop
  endfacet
  facet normal 0 -1 -0
    outer loop
      vertex 63.3 0 5.4
      vertex 1.2 0 3
      vertex 63.3 0 3
    endloop
  endfacet
  facet normal 0.707107 0.707107 0
    outer loop
      vertex 63.3 30 5.4
      vertex 63.7 29.6 3
      vertex 63.3 30 3
    endloop
  endfacet
  facet normal 0.707107 0.707107 1.74455e-15
    outer loop
      vertex 64.5 28.8 5.4
      vertex 63.7 29.6 3
      vertex 63.3 30 5.4
    endloop
  endfacet
  facet normal 0.707107 0.707107 0
    outer loop
      vertex 63.7 29.6 3
      vertex 64.5 28.8 5.4
      vertex 64.5 28.8 3
    endloop
  endfacet
  facet normal 1 -0 0
    outer loop
      vertex 64.5 1.2 5.4
      vertex 64.5 28.8 3
      vertex 64.5 28.8 5.4
    endloop
  endfacet
  facet normal 1 0 0
    outer loop
      vertex 64.5 28.8 3
      vertex 64.5 1.2 5.4
      vertex 64.5 1.2 3
    endloop
  endfacet
  facet normal -1 0 0
    outer loop
      vertex 1.65 0.4 4.44089e-16
      vertex 1.65 29.6 3
      vertex 1.65 29.6 4.44089e-16
    endloop
  endfacet
  facet normal -1 -0 0
    outer loop
      vertex 1.65 29.6 3
      vertex 1.65 0.4 4.44089e-16
      vertex 1.65 0.4 3
    endloop
  endfacet
  facet normal 1 -0 0
    outer loop
      vertex 62.85 0.4 1.35001
      vertex 62.85 29.6 4.44089e-16
      vertex 62.85 29.6 1.35001
    endloop
  endfacet
  facet normal 1 0 0
    outer loop
      vertex 62.85 29.6 4.44089e-16
      vertex 62.85 0.4 1.35001
      vertex 62.85 0.4 4.44089e-16
    endloop
  endfacet
  facet normal 0 0 -1
    outer loop
      vertex 6.05 12 4.44089e-16
      vertex 12.45 14 4.44089e-16
      vertex 12.45 12 4.44089e-16
    endloop
  endfacet
  facet normal -0 0 -1
    outer loop
      vertex 12.45 14 4.44089e-16
      vertex 6.05 12 4.44089e-16
      vertex 6.05 14 4.44089e-16
    endloop
  endfacet
  facet normal 0 0 -1
    outer loop
      vertex 17.05 12 4.44089e-16
      vertex 23.45 14 4.44089e-16
      vertex 23.45 12 4.44089e-16
    endloop
  endfacet
  facet normal -0 0 -1
    outer loop
      vertex 23.45 14 4.44089e-16
      vertex 17.05 12 4.44089e-16
      vertex 17.05 14 4.44089e-16
    endloop
  endfacet
  facet normal 0 0 -1
    outer loop
      vertex 28.05 12 4.44089e-16
      vertex 34.45 14 4.44089e-16
      vertex 34.45 12 4.44089e-16
    endloop
  endfacet
  facet normal -0 0 -1
    outer loop
      vertex 34.45 14 4.44089e-16
      vertex 28.05 12 4.44089e-16
      vertex 28.05 14 4.44089e-16
    endloop
  endfacet
  facet normal 0 0 -1
    outer loop
      vertex 39.05 12 4.44089e-16
      vertex 45.45 14 4.44089e-16
      vertex 45.45 12 4.44089e-16
    endloop
  endfacet
  facet normal -0 0 -1
    outer loop
      vertex 45.45 14 4.44089e-16
      vertex 39.05 12 4.44089e-16
      vertex 39.05 14 4.44089e-16
    endloop
  endfacet
  facet normal 0 0 -1
    outer loop
      vertex 50.05 12 4.44089e-16
      vertex 56.45 14 4.44089e-16
      vertex 56.45 12 4.44089e-16
    endloop
  endfacet
  facet normal -0 0 -1
    outer loop
      vertex 56.45 14 4.44089e-16
      vertex 50.05 12 4.44089e-16
      vertex 50.05 14 4.44089e-16
    endloop
  endfacet
  facet normal 0 0 -1
    outer loop
      vertex 56.45 12 4.44089e-16
      vertex 62.85 0.4 4.44089e-16
      vertex 56.45 5 4.44089e-16
    endloop
  endfacet
  facet normal 0 0 -1
    outer loop
      vertex 62.85 0.4 4.44089e-16
      vertex 50.05 5 4.44089e-16
      vertex 56.45 5 4.44089e-16
    endloop
  endfacet
  facet normal 0 0 -1
    outer loop
      vertex 45.45 12 4.44089e-16
      vertex 50.05 12 4.44089e-16
      vertex 50.05 5 4.44089e-16
    endloop
  endfacet
  facet normal 0 0 -1
    outer loop
      vertex 50.05 12 4.44089e-16
      vertex 45.45 12 4.44089e-16
      vertex 50.05 14 4.44089e-16
    endloop
  endfacet
  facet normal 0 0 -1
    outer loop
      vertex 45.45 12 4.44089e-16
      vertex 50.05 5 4.44089e-16
      vertex 45.45 5 4.44089e-16
    endloop
  endfacet
  facet normal 0 0 -1
    outer loop
      vertex 62.85 0.4 4.44089e-16
      vertex 45.45 5 4.44089e-16
      vertex 50.05 5 4.44089e-16
    endloop
  endfacet
  facet normal 0 0 -1
    outer loop
      vertex 62.85 0.4 4.44089e-16
      vertex 39.05 5 4.44089e-16
      vertex 45.45 5 4.44089e-16
    endloop
  endfacet
  facet normal 0 0 -1
    outer loop
      vertex 34.45 12 4.44089e-16
      vertex 39.05 12 4.44089e-16
      vertex 39.05 5 4.44089e-16
    endloop
  endfacet
  facet normal 0 0 -1
    outer loop
      vertex 39.05 12 4.44089e-16
      vertex 34.45 12 4.44089e-16
      vertex 39.05 14 4.44089e-16
    endloop
  endfacet
  facet normal 0 0 -1
    outer loop
      vertex 34.45 12 4.44089e-16
      vertex 39.05 5 4.44089e-16
      vertex 34.45 5 4.44089e-16
    endloop
  endfacet
  facet normal 0 0 -1
    outer loop
      vertex 62.85 0.4 4.44089e-16
      vertex 34.45 5 4.44089e-16
      vertex 39.05 5 4.44089e-16
    endloop
  endfacet
  facet normal 0 0 -1
    outer loop
      vertex 1.65 0.4 4.44089e-16
      vertex 34.45 5 4.44089e-16
      vertex 62.85 0.4 4.44089e-16
    endloop
  endfacet
  facet normal 0 0 -1
    outer loop
      vertex 23.45 12 4.44089e-16
      vertex 28.05 12 4.44089e-16
      vertex 28.05 5 4.44089e-16
    endloop
  endfacet
  facet normal 0 0 -1
    outer loop
      vertex 28.05 12 4.44089e-16
      vertex 23.45 12 4.44089e-16
      vertex 28.05 14 4.44089e-16
    endloop
  endfacet
  facet normal 0 0 -1
    outer loop
      vertex 23.45 12 4.44089e-16
      vertex 28.05 5 4.44089e-16
      vertex 23.45 5 4.44089e-16
    endloop
  endfacet
  facet normal -0 0 -1
    outer loop
      vertex 34.45 5 4.44089e-16
      vertex 1.65 0.4 4.44089e-16
      vertex 28.05 5 4.44089e-16
    endloop
  endfacet
  facet normal -0 0 -1
    outer loop
      vertex 28.05 5 4.44089e-16
      vertex 1.65 0.4 4.44089e-16
      vertex 23.45 5 4.44089e-16
    endloop
  endfacet
  facet normal 0 0 -1
    outer loop
      vertex 12.45 12 4.44089e-16
      vertex 17.05 12 4.44089e-16
      vertex 17.05 5 4.44089e-16
    endloop
  endfacet
  facet normal 0 0 -1
    outer loop
      vertex 17.05 12 4.44089e-16
      vertex 12.45 12 4.44089e-16
      vertex 17.05 14 4.44089e-16
    endloop
  endfacet
  facet normal 0 0 -1
    outer loop
      vertex 12.45 12 4.44089e-16
      vertex 17.05 5 4.44089e-16
      vertex 12.45 5 4.44089e-16
    endloop
  endfacet
  facet normal -0 0 -1
    outer loop
      vertex 23.45 5 4.44089e-16
      vertex 1.65 0.4 4.44089e-16
      vertex 17.05 5 4.44089e-16
    endloop
  endfacet
  facet normal -0 0 -1
    outer loop
      vertex 17.05 5 4.44089e-16
      vertex 1.65 0.4 4.44089e-16
      vertex 12.45 5 4.44089e-16
    endloop
  endfacet
  facet normal 0 0 -1
    outer loop
      vertex 1.65 0.4 4.44089e-16
      vertex 6.05 12 4.44089e-16
      vertex 6.05 5 4.44089e-16
    endloop
  endfacet
  facet normal -0 0 -1
    outer loop
      vertex 6.05 12 4.44089e-16
      vertex 1.65 0.4 4.44089e-16
      vertex 6.05 14 4.44089e-16
    endloop
  endfacet
  facet normal 0 0 -1
    outer loop
      vertex 1.65 29.6 4.44089e-16
      vertex 6.05 14 4.44089e-16
      vertex 1.65 0.4 4.44089e-16
    endloop
  endfacet
  facet normal -0 0 -1
    outer loop
      vertex 12.45 5 4.44089e-16
      vertex 1.65 0.4 4.44089e-16
      vertex 6.05 5 4.44089e-16
    endloop
  endfacet
  facet normal 0 0 -1
    outer loop
      vertex 56.45 14 4.44089e-16
      vertex 62.85 0.4 4.44089e-16
      vertex 56.45 12 4.44089e-16
    endloop
  endfacet
  facet normal 0 0 -1
    outer loop
      vertex 62.85 0.4 4.44089e-16
      vertex 56.45 14 4.44089e-16
      vertex 62.85 29.6 4.44089e-16
    endloop
  endfacet
  facet normal 0 0 -1
    outer loop
      vertex 56.45 21 4.44089e-16
      vertex 62.85 29.6 4.44089e-16
      vertex 56.45 14 4.44089e-16
    endloop
  endfacet
  facet normal 0 0 -1
    outer loop
      vertex 50.05 21 4.44089e-16
      vertex 62.85 29.6 4.44089e-16
      vertex 56.45 21 4.44089e-16
    endloop
  endfacet
  facet normal 0 0 -1
    outer loop
      vertex 45.45 14 4.44089e-16
      vertex 50.05 14 4.44089e-16
      vertex 45.45 12 4.44089e-16
    endloop
  endfacet
  facet normal 0 0 -1
    outer loop
      vertex 50.05 14 4.44089e-16
      vertex 45.45 14 4.44089e-16
      vertex 50.05 21 4.44089e-16
    endloop
  endfacet
  facet normal 0 0 -1
    outer loop
      vertex 45.45 21 4.44089e-16
      vertex 50.05 21 4.44089e-16
      vertex 45.45 14 4.44089e-16
    endloop
  endfacet
  facet normal 0 0 -1
    outer loop
      vertex 45.45 21 4.44089e-16
      vertex 62.85 29.6 4.44089e-16
      vertex 50.05 21 4.44089e-16
    endloop
  endfacet
  facet normal 0 0 -1
    outer loop
      vertex 39.05 21 4.44089e-16
      vertex 62.85 29.6 4.44089e-16
      vertex 45.45 21 4.44089e-16
    endloop
  endfacet
  facet normal 0 0 -1
    outer loop
      vertex 34.45 14 4.44089e-16
      vertex 39.05 14 4.44089e-16
      vertex 34.45 12 4.44089e-16
    endloop
  endfacet
  facet normal 0 0 -1
    outer loop
      vertex 39.05 14 4.44089e-16
      vertex 34.45 14 4.44089e-16
      vertex 39.05 21 4.44089e-16
    endloop
  endfacet
  facet normal 0 0 -1
    outer loop
      vertex 34.45 21 4.44089e-16
      vertex 39.05 21 4.44089e-16
      vertex 34.45 14 4.44089e-16
    endloop
  endfacet
  facet normal 0 0 -1
    outer loop
      vertex 34.45 21 4.44089e-16
      vertex 62.85 29.6 4.44089e-16
      vertex 39.05 21 4.44089e-16
    endloop
  endfacet
  facet normal 0 0 -1
    outer loop
      vertex 1.65 29.6 4.44089e-16
      vertex 34.45 21 4.44089e-16
      vertex 28.05 21 4.44089e-16
    endloop
  endfacet
  facet normal 0 0 -1
    outer loop
      vertex 23.45 14 4.44089e-16
      vertex 28.05 14 4.44089e-16
      vertex 23.45 12 4.44089e-16
    endloop
  endfacet
  facet normal 0 0 -1
    outer loop
      vertex 28.05 14 4.44089e-16
      vertex 23.45 14 4.44089e-16
      vertex 28.05 21 4.44089e-16
    endloop
  endfacet
  facet normal 0 0 -1
    outer loop
      vertex 23.45 21 4.44089e-16
      vertex 28.05 21 4.44089e-16
      vertex 23.45 14 4.44089e-16
    endloop
  endfacet
  facet normal 0 0 -1
    outer loop
      vertex 1.65 29.6 4.44089e-16
      vertex 28.05 21 4.44089e-16
      vertex 23.45 21 4.44089e-16
    endloop
  endfacet
  facet normal 0 0 -1
    outer loop
      vertex 1.65 29.6 4.44089e-16
      vertex 23.45 21 4.44089e-16
      vertex 17.05 21 4.44089e-16
    endloop
  endfacet
  facet normal 0 0 -1
    outer loop
      vertex 12.45 14 4.44089e-16
      vertex 17.05 14 4.44089e-16
      vertex 12.45 12 4.44089e-16
    endloop
  endfacet
  facet normal 0 0 -1
    outer loop
      vertex 17.05 14 4.44089e-16
      vertex 12.45 14 4.44089e-16
      vertex 17.05 21 4.44089e-16
    endloop
  endfacet
  facet normal 0 0 -1
    outer loop
      vertex 12.45 21 4.44089e-16
      vertex 17.05 21 4.44089e-16
      vertex 12.45 14 4.44089e-16
    endloop
  endfacet
  facet normal 0 0 -1
    outer loop
      vertex 1.65 29.6 4.44089e-16
      vertex 17.05 21 4.44089e-16
      vertex 12.45 21 4.44089e-16
    endloop
  endfacet
  facet normal 0 0 -1
    outer loop
      vertex 1.65 29.6 4.44089e-16
      vertex 12.45 21 4.44089e-16
      vertex 6.05 21 4.44089e-16
    endloop
  endfacet
  facet normal 0 0 -1
    outer loop
      vertex 34.45 21 4.44089e-16
      vertex 1.65 29.6 4.44089e-16
      vertex 62.85 29.6 4.44089e-16
    endloop
  endfacet
  facet normal 0 0 -1
    outer loop
      vertex 6.05 14 4.44089e-16
      vertex 1.65 29.6 4.44089e-16
      vertex 6.05 21 4.44089e-16
    endloop
  endfacet
  facet normal 1 -0 0
    outer loop
      vertex 6.05 5 5.4
      vertex 6.05 12 4.44089e-16
      vertex 6.05 12 5.4
    endloop
  endfacet
  facet normal 1 0 0
    outer loop
      vertex 6.05 12 4.44089e-16
      vertex 6.05 5 5.4
      vertex 6.05 5 4.44089e-16
    endloop
  endfacet
  facet normal 0 -1 0
    outer loop
      vertex 6.05 12 4.44089e-16
      vertex 12.45 12 5.4
      vertex 6.05 12 5.4
    endloop
  endfacet
  facet normal 0 -1 -0
    outer loop
      vertex 12.45 12 5.4
      vertex 6.05 12 4.44089e-16
      vertex 12.45 12 4.44089e-16
    endloop
  endfacet
  facet normal -1 0 0
    outer loop
      vertex 12.45 5 4.44089e-16
      vertex 12.45 12 5.4
      vertex 12.45 12 4.44089e-16
    endloop
  endfacet
  facet normal -1 -0 0
    outer loop
      vertex 12.45 12 5.4
      vertex 12.45 5 4.44089e-16
      vertex 12.45 5 5.4
    endloop
  endfacet
  facet normal 0 1 -0
    outer loop
      vertex 12.45 5 4.44089e-16
      vertex 6.05 5 5.4
      vertex 12.45 5 5.4
    endloop
  endfacet
  facet normal 0 1 0
    outer loop
      vertex 6.05 5 5.4
      vertex 12.45 5 4.44089e-16
      vertex 6.05 5 4.44089e-16
    endloop
  endfacet
  facet normal 1 -0 0
    outer loop
      vertex 6.05 14 5.4
      vertex 6.05 21 4.44089e-16
      vertex 6.05 21 5.4
    endloop
  endfacet
  facet normal 1 0 0
    outer loop
      vertex 6.05 21 4.44089e-16
      vertex 6.05 14 5.4
      vertex 6.05 14 4.44089e-16
    endloop
  endfacet
  facet normal 0 -1 0
    outer loop
      vertex 6.05 21 4.44089e-16
      vertex 12.45 21 5.4
      vertex 6.05 21 5.4
    endloop
  endfacet
  facet normal 0 -1 -0
    outer loop
      vertex 12.45 21 5.4
      vertex 6.05 21 4.44089e-16
      vertex 12.45 21 4.44089e-16
    endloop
  endfacet
  facet normal -1 0 0
    outer loop
      vertex 12.45 14 4.44089e-16
      vertex 12.45 21 5.4
      vertex 12.45 21 4.44089e-16
    endloop
  endfacet
  facet normal -1 -0 0
    outer loop
      vertex 12.45 21 5.4
      vertex 12.45 14 4.44089e-16
      vertex 12.45 14 5.4
    endloop
  endfacet
  facet normal 0 1 -0
    outer loop
      vertex 12.45 14 4.44089e-16
      vertex 6.05 14 5.4
      vertex 12.45 14 5.4
    endloop
  endfacet
  facet normal 0 1 0
    outer loop
      vertex 6.05 14 5.4
      vertex 12.45 14 4.44089e-16
      vertex 6.05 14 4.44089e-16
    endloop
  endfacet
  facet normal 1 -0 0
    outer loop
      vertex 17.05 5 5.4
      vertex 17.05 12 4.44089e-16
      vertex 17.05 12 5.4
    endloop
  endfacet
  facet normal 1 0 0
    outer loop
      vertex 17.05 12 4.44089e-16
      vertex 17.05 5 5.4
      vertex 17.05 5 4.44089e-16
    endloop
  endfacet
  facet normal 0 -1 0
    outer loop
      vertex 17.05 12 4.44089e-16
      vertex 23.45 12 5.4
      vertex 17.05 12 5.4
    endloop
  endfacet
  facet normal 0 -1 -0
    outer loop
      vertex 23.45 12 5.4
      vertex 17.05 12 4.44089e-16
      vertex 23.45 12 4.44089e-16
    endloop
  endfacet
  facet normal -1 0 0
    outer loop
      vertex 23.45 5 4.44089e-16
      vertex 23.45 12 5.4
      vertex 23.45 12 4.44089e-16
    endloop
  endfacet
  facet normal -1 -0 0
    outer loop
      vertex 23.45 12 5.4
      vertex 23.45 5 4.44089e-16
      vertex 23.45 5 5.4
    endloop
  endfacet
  facet normal 0 1 -0
    outer loop
      vertex 23.45 5 4.44089e-16
      vertex 17.05 5 5.4
      vertex 23.45 5 5.4
    endloop
  endfacet
  facet normal 0 1 0
    outer loop
      vertex 17.05 5 5.4
      vertex 23.45 5 4.44089e-16
      vertex 17.05 5 4.44089e-16
    endloop
  endfacet
  facet normal 1 -0 0
    outer loop
      vertex 17.05 14 5.4
      vertex 17.05 21 4.44089e-16
      vertex 17.05 21 5.4
    endloop
  endfacet
  facet normal 1 0 0
    outer loop
      vertex 17.05 21 4.44089e-16
      vertex 17.05 14 5.4
      vertex 17.05 14 4.44089e-16
    endloop
  endfacet
  facet normal 0 -1 0
    outer loop
      vertex 17.05 21 4.44089e-16
      vertex 23.45 21 5.4
      vertex 17.05 21 5.4
    endloop
  endfacet
  facet normal 0 -1 -0
    outer loop
      vertex 23.45 21 5.4
      vertex 17.05 21 4.44089e-16
      vertex 23.45 21 4.44089e-16
    endloop
  endfacet
  facet normal -1 0 0
    outer loop
      vertex 23.45 14 4.44089e-16
      vertex 23.45 21 5.4
      vertex 23.45 21 4.44089e-16
    endloop
  endfacet
  facet normal -1 -0 0
    outer loop
      vertex 23.45 21 5.4
      vertex 23.45 14 4.44089e-16
      vertex 23.45 14 5.4
    endloop
  endfacet
  facet normal 0 1 -0
    outer loop
      vertex 23.45 14 4.44089e-16
      vertex 17.05 14 5.4
      vertex 23.45 14 5.4
    endloop
  endfacet
  facet normal 0 1 0
    outer loop
      vertex 17.05 14 5.4
      vertex 23.45 14 4.44089e-16
      vertex 17.05 14 4.44089e-16
    endloop
  endfacet
  facet normal 1 -0 0
    outer loop
      vertex 28.05 5 5.4
      vertex 28.05 12 4.44089e-16
      vertex 28.05 12 5.4
    endloop
  endfacet
  facet normal 1 0 0
    outer loop
      vertex 28.05 12 4.44089e-16
      vertex 28.05 5 5.4
      vertex 28.05 5 4.44089e-16
    endloop
  endfacet
  facet normal 0 -1 0
    outer loop
      vertex 28.05 12 4.44089e-16
      vertex 34.45 12 5.4
      vertex 28.05 12 5.4
    endloop
  endfacet
  facet normal 0 -1 -0
    outer loop
      vertex 34.45 12 5.4
      vertex 28.05 12 4.44089e-16
      vertex 34.45 12 4.44089e-16
    endloop
  endfacet
  facet normal -1 0 0
    outer loop
      vertex 34.45 5 4.44089e-16
      vertex 34.45 12 5.4
      vertex 34.45 12 4.44089e-16
    endloop
  endfacet
  facet normal -1 -0 0
    outer loop
      vertex 34.45 12 5.4
      vertex 34.45 5 4.44089e-16
      vertex 34.45 5 5.4
    endloop
  endfacet
  facet normal 0 1 -0
    outer loop
      vertex 34.45 5 4.44089e-16
      vertex 28.05 5 5.4
      vertex 34.45 5 5.4
    endloop
  endfacet
  facet normal 0 1 0
    outer loop
      vertex 28.05 5 5.4
      vertex 34.45 5 4.44089e-16
      vertex 28.05 5 4.44089e-16
    endloop
  endfacet
  facet normal 1 -0 0
    outer loop
      vertex 28.05 14 5.4
      vertex 28.05 21 4.44089e-16
      vertex 28.05 21 5.4
    endloop
  endfacet
  facet normal 1 0 0
    outer loop
      vertex 28.05 21 4.44089e-16
      vertex 28.05 14 5.4
      vertex 28.05 14 4.44089e-16
    endloop
  endfacet
  facet normal 0 -1 0
    outer loop
      vertex 28.05 21 4.44089e-16
      vertex 34.45 21 5.4
      vertex 28.05 21 5.4
    endloop
  endfacet
  facet normal 0 -1 -0
    outer loop
      vertex 34.45 21 5.4
      vertex 28.05 21 4.44089e-16
      vertex 34.45 21 4.44089e-16
    endloop
  endfacet
  facet normal -1 0 0
    outer loop
      vertex 34.45 14 4.44089e-16
      vertex 34.45 21 5.4
      vertex 34.45 21 4.44089e-16
    endloop
  endfacet
  facet normal -1 -0 0
    outer loop
      vertex 34.45 21 5.4
      vertex 34.45 14 4.44089e-16
      vertex 34.45 14 5.4
    endloop
  endfacet
  facet normal 0 1 -0
    outer loop
      vertex 34.45 14 4.44089e-16
      vertex 28.05 14 5.4
      vertex 34.45 14 5.4
    endloop
  endfacet
  facet normal 0 1 0
    outer loop
      vertex 28.05 14 5.4
      vertex 34.45 14 4.44089e-16
      vertex 28.05 14 4.44089e-16
    endloop
  endfacet
  facet normal 1 -0 0
    outer loop
      vertex 39.05 5 5.4
      vertex 39.05 12 4.44089e-16
      vertex 39.05 12 5.4
    endloop
  endfacet
  facet normal 1 0 0
    outer loop
      vertex 39.05 12 4.44089e-16
      vertex 39.05 5 5.4
      vertex 39.05 5 4.44089e-16
    endloop
  endfacet
  facet normal 0 -1 0
    outer loop
      vertex 39.05 12 4.44089e-16
      vertex 45.45 12 5.4
      vertex 39.05 12 5.4
    endloop
  endfacet
  facet normal 0 -1 -0
    outer loop
      vertex 45.45 12 5.4
      vertex 39.05 12 4.44089e-16
      vertex 45.45 12 4.44089e-16
    endloop
  endfacet
  facet normal -1 0 0
    outer loop
      vertex 45.45 5 4.44089e-16
      vertex 45.45 12 5.4
      vertex 45.45 12 4.44089e-16
    endloop
  endfacet
  facet normal -1 -0 0
    outer loop
      vertex 45.45 12 5.4
      vertex 45.45 5 4.44089e-16
      vertex 45.45 5 5.4
    endloop
  endfacet
  facet normal 0 1 -0
    outer loop
      vertex 45.45 5 4.44089e-16
      vertex 39.05 5 5.4
      vertex 45.45 5 5.4
    endloop
  endfacet
  facet normal 0 1 0
    outer loop
      vertex 39.05 5 5.4
      vertex 45.45 5 4.44089e-16
      vertex 39.05 5 4.44089e-16
    endloop
  endfacet
  facet normal 1 -0 0
    outer loop
      vertex 39.05 14 5.4
      vertex 39.05 21 4.44089e-16
      vertex 39.05 21 5.4
    endloop
  endfacet
  facet normal 1 0 0
    outer loop
      vertex 39.05 21 4.44089e-16
      vertex 39.05 14 5.4
      vertex 39.05 14 4.44089e-16
    endloop
  endfacet
  facet normal 0 -1 0
    outer loop
      vertex 39.05 21 4.44089e-16
      vertex 45.45 21 5.4
      vertex 39.05 21 5.4
    endloop
  endfacet
  facet normal 0 -1 -0
    outer loop
      vertex 45.45 21 5.4
      vertex 39.05 21 4.44089e-16
      vertex 45.45 21 4.44089e-16
    endloop
  endfacet
  facet normal -1 0 0
    outer loop
      vertex 45.45 14 4.44089e-16
      vertex 45.45 21 5.4
      vertex 45.45 21 4.44089e-16
    endloop
  endfacet
  facet normal -1 -0 0
    outer loop
      vertex 45.45 21 5.4
      vertex 45.45 14 4.44089e-16
      vertex 45.45 14 5.4
    endloop
  endfacet
  facet normal 0 1 -0
    outer loop
      vertex 45.45 14 4.44089e-16
      vertex 39.05 14 5.4
      vertex 45.45 14 5.4
    endloop
  endfacet
  facet normal 0 1 0
    outer loop
      vertex 39.05 14 5.4
      vertex 45.45 14 4.44089e-16
      vertex 39.05 14 4.44089e-16
    endloop
  endfacet
  facet normal 1 -0 0
    outer loop
      vertex 50.05 5 5.4
      vertex 50.05 12 4.44089e-16
      vertex 50.05 12 5.4
    endloop
  endfacet
  facet normal 1 0 0
    outer loop
      vertex 50.05 12 4.44089e-16
      vertex 50.05 5 5.4
      vertex 50.05 5 4.44089e-16
    endloop
  endfacet
  facet normal 0 -1 0
    outer loop
      vertex 50.05 12 4.44089e-16
      vertex 56.45 12 5.4
      vertex 50.05 12 5.4
    endloop
  endfacet
  facet normal 0 -1 -0
    outer loop
      vertex 56.45 12 5.4
      vertex 50.05 12 4.44089e-16
      vertex 56.45 12 4.44089e-16
    endloop
  endfacet
  facet normal -1 0 0
    outer loop
      vertex 56.45 5 4.44089e-16
      vertex 56.45 12 5.4
      vertex 56.45 12 4.44089e-16
    endloop
  endfacet
  facet normal -1 -0 0
    outer loop
      vertex 56.45 12 5.4
      vertex 56.45 5 4.44089e-16
      vertex 56.45 5 5.4
    endloop
  endfacet
  facet normal 0 1 -0
    outer loop
      vertex 56.45 5 4.44089e-16
      vertex 50.05 5 5.4
      vertex 56.45 5 5.4
    endloop
  endfacet
  facet normal 0 1 0
    outer loop
      vertex 50.05 5 5.4
      vertex 56.45 5 4.44089e-16
      vertex 50.05 5 4.44089e-16
    endloop
  endfacet
  facet normal 1 -0 0
    outer loop
      vertex 50.05 14 5.4
      vertex 50.05 21 4.44089e-16
      vertex 50.05 21 5.4
    endloop
  endfacet
  facet normal 1 0 0
    outer loop
      vertex 50.05 21 4.44089e-16
      vertex 50.05 14 5.4
      vertex 50.05 14 4.44089e-16
    endloop
  endfacet
  facet normal 0 -1 0
    outer loop
      vertex 50.05 21 4.44089e-16
      vertex 56.45 21 5.4
      vertex 50.05 21 5.4
    endloop
  endfacet
  facet normal 0 -1 -0
    outer loop
      vertex 56.45 21 5.4
      vertex 50.05 21 4.44089e-16
      vertex 56.45 21 4.44089e-16
    endloop
  endfacet
  facet normal -1 0 0
    outer loop
      vertex 56.45 14 4.44089e-16
      vertex 56.45 21 5.4
      vertex 56.45 21 4.44089e-16
    endloop
  endfacet
  facet normal -1 -0 0
    outer loop
      vertex 56.45 21 5.4
      vertex 56.45 14 4.44089e-16
      vertex 56.45 14 5.4
    endloop
  endfacet
  facet normal 0 1 -0
    outer loop
      vertex 56.45 14 4.44089e-16
      vertex 50.05 14 5.4
      vertex 56.45 14 5.4
    endloop
  endfacet
  facet normal 0 1 0
    outer loop
      vertex 50.05 14 5.4
      vertex 56.45 14 4.44089e-16
      vertex 50.05 14 4.44089e-16
    endloop
  endfacet
endsolid OpenSCAD_Model
