solid OpenSCAD_Model
  facet normal 0 -1 0
    outer loop
      vertex 1.64999 0.4 1.35001
      vertex 0.799997 0.4 3
      vertex 0 0.4 3
    endloop
  endfacet
  facet normal 0 -1 0
    outer loop
      vertex 0.799997 0.4 3
      vertex 1.64999 0.4 1.35001
      vertex 1.64999 0.4 3
    endloop
  endfacet
  facet normal 0 0 -1
    outer loop
      vertex 63.3 0 3
      vertex 1.65 0.4 3
      vertex 63.7 0.4 3
    endloop
  endfacet
  facet normal 0 0 -1
    outer loop
      vertex 1.65 0.4 3
      vertex 1.64999 0.4 3
      vertex 1.65 29.6 3
    endloop
  endfacet
  facet normal 0 0 -1
    outer loop
      vertex 1.2 0 3
      vertex 1.65 0.4 3
      vertex 63.3 0 3
    endloop
  endfacet
  facet normal -0 0 -1
    outer loop
      vertex 1.65 0.4 3
      vertex 1.2 0 3
      vertex 1.64999 0.4 3
    endloop
  endfacet
  facet normal -0 0 -1
    outer loop
      vertex 1.64999 0.4 3
      vertex 1.2 0 3
      vertex 0.799997 0.4 3
    endloop
  endfacet
  facet normal 0 0 -1
    outer loop
      vertex 1.65 29.6 3
      vertex 63.3 30 3
      vertex 63.7 29.6 3
    endloop
  endfacet
  facet normal 0 0 -1
    outer loop
      vertex 1.64999 29.6 3
      vertex 1.65 29.6 3
      vertex 1.64999 0.4 3
    endloop
  endfacet
  facet normal 0 0 -1
    outer loop
      vertex 1.2 30 3
      vertex 1.65 29.6 3
      vertex 1.64999 29.6 3
    endloop
  endfacet
  facet normal 0 0 -1
    outer loop
      vertex 1.65 29.6 3
      vertex 1.2 30 3
      vertex 63.3 30 3
    endloop
  endfacet
  facet normal 0 -0 -1
    outer loop
      vertex 1.2 30 3
      vertex 1.64999 29.6 3
      vertex 0.800001 29.6 3
    endloop
  endfacet
  facet normal -0 0 1
    outer loop
      vertex 0 29.6 3
      vertex 0 28.8 3
      vertex 0.800001 29.6 3
    endloop
  endfacet
  facet normal 0 0 1
    outer loop
      vertex 0 1.2 3
      vertex 0 0.4 3
      vertex 0.799997 0.4 3
    endloop
  endfacet
  facet normal 0 0 1
    outer loop
      vertex 64.5 1.2 3
      vertex 63.7 0.4 3
      vertex 64.5 0.4 3
    endloop
  endfacet
  facet normal 0 0 1
    outer loop
      vertex 64.5 29.6 3
      vertex 63.7 29.6 3
      vertex 64.5 28.8 3
    endloop
  endfacet
  facet normal 1 -0 0
    outer loop
      vertex 1.64999 0.4 3
      vertex 1.64999 29.6 1.35001
      vertex 1.64999 29.6 3
    endloop
  endfacet
  facet normal 1 0 0
    outer loop
      vertex 1.64999 29.6 1.35001
      vertex 1.64999 0.4 3
      vertex 1.64999 0.4 1.35001
    endloop
  endfacet
  facet normal 0 1 -0
    outer loop
      vertex 1.64999 29.6 1.35001
      vertex 0.800001 29.6 3
      vertex 1.64999 29.6 3
    endloop
  endfacet
  facet normal 0 1 0
    outer loop
      vertex 0.800001 29.6 3
      vertex 1.64999 29.6 1.35001
      vertex 0 29.6 3
    endloop
  endfacet
  facet normal -0.707107 0 -0.707107
    outer loop
      vertex 1.64999 29.6 1.35001
      vertex 0 28.8 3
      vertex 0 29.6 3
    endloop
  endfacet
  facet normal -0.707107 0 -0.707107
    outer loop
      vertex 1.64999 29.6 1.35001
      vertex 0 1.2 3
      vertex 0 28.8 3
    endloop
  endfacet
  facet normal -0.707107 0 -0.707107
    outer loop
      vertex 1.64999 0.4 1.35001
      vertex 0 1.2 3
      vertex 1.64999 29.6 1.35001
    endloop
  endfacet
  facet normal -0.707107 -0 -0.707107
    outer loop
      vertex 0 1.2 3
      vertex 1.64999 0.4 1.35001
      vertex 0 0.4 3
    endloop
  endfacet
  facet normal 0 -1 0
    outer loop
      vertex 62.85 0.4 1.35001
      vertex 63.7 0.4 3
      vertex 1.65 0.4 3
    endloop
  endfacet
  facet normal 0 -1 -0
    outer loop
      vertex 63.7 0.4 3
      vertex 62.85 0.4 1.35001
      vertex 64.5 0.4 3
    endloop
  endfacet
  facet normal 0 -1 0
    outer loop
      vertex 1.65 0.4 4.44089e-16
      vertex 62.85 0.4 1.35001
      vertex 1.65 0.4 3
    endloop
  endfacet
  facet normal 0 -1 -0
    outer loop
      vertex 62.85 0.4 1.35001
      vertex 1.65 0.4 4.44089e-16
      vertex 62.85 0.4 4.44089e-16
    endloop
  endfacet
  facet normal 0.707105 0 -0.707109
    outer loop
      vertex 62.85 0.4 1.35001
      vertex 64.5 1.2 3
      vertex 64.5 0.4 3
    endloop
  endfacet
  facet normal 0.707105 0 -0.707109
    outer loop
      vertex 64.5 1.2 3
      vertex 62.85 0.4 1.35001
      vertex 64.5 28.8 3
    endloop
  endfacet
  facet normal 0.707105 0 -0.707109
    outer loop
      vertex 62.85 29.6 1.35001
      vertex 64.5 28.8 3
      vertex 62.85 0.4 1.35001
    endloop
  endfacet
  facet normal 0.707105 0 -0.707109
    outer loop
      vertex 64.5 28.8 3
      vertex 62.85 29.6 1.35001
      vertex 64.5 29.6 3
    endloop
  endfacet
  facet normal 0 1 0
    outer loop
      vertex 62.85 29.6 1.35001
      vertex 63.7 29.6 3
      vertex 64.5 29.6 3
    endloop
  endfacet
  facet normal 0 1 0
    outer loop
      vertex 63.7 29.6 3
      vertex 62.85 29.6 1.35001
      vertex 1.65 29.6 3
    endloop
  endfacet
  facet normal 0 1 0
    outer loop
      vertex 1.65 29.6 4.44089e-16
      vertex 62.85 29.6 1.35001
      vertex 62.85 29.6 4.44089e-16
    endloop
  endfacet
  facet normal 0 1 0
    outer loop
      vertex 62.85 29.6 1.35001
      vertex 1.65 29.6 4.44089e-16
      vertex 1.65 29.6 3
    endloop
  endfacet
  facet normal 0.707107 -0.707107 0
    outer loop
      vertex 63.7 0.4 3
      vertex 63.3 0 5.4
      vertex 63.3 0 3
    endloop
  endfacet
  facet normal 0.707107 -0.707107 1.39019e-15
    outer loop
      vertex 63.3 0 5.4
      vertex 63.7 0.4 3
      vertex 64.5 1.2 5.4
    endloop
  endfacet
  facet normal 0.707107 -0.707107 0
    outer loop
      vertex 64.5 1.2 5.4
      vertex 63.7 0.4 3
      vertex 64.5 1.2 3
    endloop
  endfacet
  facet normal -1 0 0
    outer loop
      vertex 0 1.2 3
      vertex 0 28.8 5.4
      vertex 0 28.8 3
    endloop
  endfacet
  facet normal -1 -0 0
    outer loop
      vertex 0 28.8 5.4
      vertex 0 1.2 3
      vertex 0 1.2 5.4
    endloop
  endfacet
  facet normal 0 1 -0
    outer loop
      vertex 63.3 30 3
      vertex 1.2 30 5.4
      vertex 63.3 30 5.4
    endloop
  endfacet
  facet normal 0 1 0
    outer loop
      vertex 1.2 30 5.4
      vertex 63.3 30 3
      vertex 1.2 30 3
    endloop
  endfacet
  facet normal -0 0 1
    outer loop
      vertex 6.05 14 5.4
      vertex 12.45 12 5.4
      vertex 12.45 14 5.4
    endloop
  endfacet
  facet normal 0 0 1
    outer loop
      vertex 12.45 12 5.4
      vertex 6.05 14 5.4
      vertex 6.05 12 5.4
    endloop
  endfacet
  facet normal -0 0 1
    outer loop
      vertex 17.05 14 5.4
      vertex 23.45 12 5.4
      vertex 23.45 14 5.4
    endloop
  endfacet
  facet normal 0 0 1
    outer loop
      vertex 23.45 12 5.4
      vertex 17.05 14 5.4
      vertex 17.05 12 5.4
    endloop
  endfacet
  facet normal -0 0 1
    outer loop
      vertex 30.1362 27.726 5.4
      vertex 31.9113 26.7452 5.4
      vertex 32.0415 27.726 5.4
    endloop
  endfacet
  facet normal 0 0 1
    outer loop
      vertex 31.9113 26.7452 5.4
      vertex 30.1362 27.726 5.4
      vertex 30.1362 26.7452 5.4
    endloop
  endfacet
  facet normal -0 0 1
    outer loop
      vertex 28.05 14 5.4
      vertex 34.45 12 5.4
      vertex 34.45 14 5.4
    endloop
  endfacet
  facet normal 0 0 1
    outer loop
      vertex 34.45 12 5.4
      vertex 28.05 14 5.4
      vertex 28.05 12 5.4
    endloop
  endfacet
  facet normal 0 0 1
    outer loop
      vertex 32.9856 25.007 5.4
      vertex 34.6001 25.007 5.4
      vertex 32.9856 27.0381 5.4
    endloop
  endfacet
  facet normal 0 0 1
    outer loop
      vertex 34.6001 25.007 5.4
      vertex 32.9747 27.4005 5.4
      vertex 32.9856 27.0381 5.4
    endloop
  endfacet
  facet normal -0 -0 1
    outer loop
      vertex 32.9747 27.4005 5.4
      vertex 34.6001 25.007 5.4
      vertex 32.9639 27.611 5.4
    endloop
  endfacet
  facet normal 0 0 1
    outer loop
      vertex 36.5366 27.726 5.4
      vertex 35.4863 27.726 5.4
      vertex 36.5366 25.007 5.4
    endloop
  endfacet
  facet normal -0 0 1
    outer loop
      vertex 39.05 14 5.4
      vertex 45.45 12 5.4
      vertex 45.45 14 5.4
    endloop
  endfacet
  facet normal 0 0 1
    outer loop
      vertex 45.45 12 5.4
      vertex 39.05 14 5.4
      vertex 39.05 12 5.4
    endloop
  endfacet
  facet normal -0 0 1
    outer loop
      vertex 50.05 14 5.4
      vertex 56.45 12 5.4
      vertex 56.45 14 5.4
    endloop
  endfacet
  facet normal 0 0 1
    outer loop
      vertex 56.45 12 5.4
      vertex 50.05 14 5.4
      vertex 50.05 12 5.4
    endloop
  endfacet
  facet normal 0 0 1
    outer loop
      vertex 56.45 21 5.4
      vertex 64.5 28.8 5.4
      vertex 63.3 30 5.4
    endloop
  endfacet
  facet normal 0 0 1
    outer loop
      vertex 64.5 28.8 5.4
      vertex 56.45 14 5.4
      vertex 64.5 1.2 5.4
    endloop
  endfacet
  facet normal 0 0 1
    outer loop
      vertex 64.5 28.8 5.4
      vertex 56.45 21 5.4
      vertex 56.45 14 5.4
    endloop
  endfacet
  facet normal 0 0 1
    outer loop
      vertex 63.3 30 5.4
      vertex 50.05 21 5.4
      vertex 56.45 21 5.4
    endloop
  endfacet
  facet normal 0 0 1
    outer loop
      vertex 45.45 14 5.4
      vertex 50.05 14 5.4
      vertex 50.05 21 5.4
    endloop
  endfacet
  facet normal 0 0 1
    outer loop
      vertex 50.05 14 5.4
      vertex 45.45 14 5.4
      vertex 50.05 12 5.4
    endloop
  endfacet
  facet normal 0 0 1
    outer loop
      vertex 45.45 14 5.4
      vertex 50.05 21 5.4
      vertex 45.45 21 5.4
    endloop
  endfacet
  facet normal -0 0 1
    outer loop
      vertex 37.9992 28.0645 5.4
      vertex 50.05 21 5.4
      vertex 63.3 30 5.4
    endloop
  endfacet
  facet normal 0 0 1
    outer loop
      vertex 50.05 21 5.4
      vertex 37.9992 28.0645 5.4
      vertex 45.45 21 5.4
    endloop
  endfacet
  facet normal 0 0 1
    outer loop
      vertex 34.45 14 5.4
      vertex 39.05 14 5.4
      vertex 39.05 21 5.4
    endloop
  endfacet
  facet normal 0 0 1
    outer loop
      vertex 39.05 14 5.4
      vertex 34.45 14 5.4
      vertex 39.05 12 5.4
    endloop
  endfacet
  facet normal 0 0 1
    outer loop
      vertex 45.45 21 5.4
      vertex 37.9992 27.726 5.4
      vertex 39.05 21 5.4
    endloop
  endfacet
  facet normal 0 0 1
    outer loop
      vertex 45.45 21 5.4
      vertex 37.9992 28.0645 5.4
      vertex 37.9992 27.726 5.4
    endloop
  endfacet
  facet normal 0 0 1
    outer loop
      vertex 63.3 30 5.4
      vertex 35.4863 28.0645 5.4
      vertex 37.9992 28.0645 5.4
    endloop
  endfacet
  facet normal 0 0 1
    outer loop
      vertex 35.4863 28.0645 5.4
      vertex 35.0992 28.0645 5.4
      vertex 35.4863 27.726 5.4
    endloop
  endfacet
  facet normal 0 0 1
    outer loop
      vertex 63.3 30 5.4
      vertex 35.0992 28.0645 5.4
      vertex 35.4863 28.0645 5.4
    endloop
  endfacet
  facet normal 0 0 1
    outer loop
      vertex 63.3 30 5.4
      vertex 34.7259 28.0645 5.4
      vertex 35.0992 28.0645 5.4
    endloop
  endfacet
  facet normal 0 0 1
    outer loop
      vertex 34.7259 28.0645 5.4
      vertex 33.0984 28.0645 5.4
      vertex 34.7259 26.0594 5.4
    endloop
  endfacet
  facet normal 0 0 1
    outer loop
      vertex 63.3 30 5.4
      vertex 33.0984 28.0645 5.4
      vertex 34.7259 28.0645 5.4
    endloop
  endfacet
  facet normal 0 0 1
    outer loop
      vertex 63.3 30 5.4
      vertex 32.6167 28.0645 5.4
      vertex 33.0984 28.0645 5.4
    endloop
  endfacet
  facet normal -0 0 1
    outer loop
      vertex 31.9113 26.411 5.4
      vertex 32.6167 25.007 5.4
      vertex 32.6167 28.0645 5.4
    endloop
  endfacet
  facet normal 0 0 1
    outer loop
      vertex 32.0415 27.726 5.4
      vertex 32.6167 28.0645 5.4
      vertex 32.0415 28.0645 5.4
    endloop
  endfacet
  facet normal 0 0 1
    outer loop
      vertex 63.3 30 5.4
      vertex 32.0415 28.0645 5.4
      vertex 32.6167 28.0645 5.4
    endloop
  endfacet
  facet normal 0 0 1
    outer loop
      vertex 63.3 30 5.4
      vertex 29.7218 28.0645 5.4
      vertex 32.0415 28.0645 5.4
    endloop
  endfacet
  facet normal 0 0 1
    outer loop
      vertex 29.7218 28.0645 5.4
      vertex 29.407 28.0645 5.4
      vertex 29.7218 25.007 5.4
    endloop
  endfacet
  facet normal -0 0 1
    outer loop
      vertex 1.2 30 5.4
      vertex 29.7218 28.0645 5.4
      vertex 63.3 30 5.4
    endloop
  endfacet
  facet normal 0 0 1
    outer loop
      vertex 29.7218 28.0645 5.4
      vertex 1.2 30 5.4
      vertex 29.407 28.0645 5.4
    endloop
  endfacet
  facet normal 0 0 1
    outer loop
      vertex 28.1288 25.9119 5.4
      vertex 27.7643 25.9119 5.4
      vertex 27.9465 25.3716 5.4
    endloop
  endfacet
  facet normal 0 0 1
    outer loop
      vertex 28.9708 28.0645 5.4
      vertex 27.7643 25.9119 5.4
      vertex 28.1288 25.9119 5.4
    endloop
  endfacet
  facet normal 0 0 1
    outer loop
      vertex 28.9708 28.0645 5.4
      vertex 26.918 28.0645 5.4
      vertex 27.7643 25.9119 5.4
    endloop
  endfacet
  facet normal 0 0 1
    outer loop
      vertex 29.407 28.0645 5.4
      vertex 1.2 30 5.4
      vertex 28.9708 28.0645 5.4
    endloop
  endfacet
  facet normal 0 0 1
    outer loop
      vertex 28.9708 28.0645 5.4
      vertex 1.2 30 5.4
      vertex 26.918 28.0645 5.4
    endloop
  endfacet
  facet normal 0 0 1
    outer loop
      vertex 26.4818 28.0645 5.4
      vertex 17.05 21 5.4
      vertex 23.45 21 5.4
    endloop
  endfacet
  facet normal 0 0 1
    outer loop
      vertex 12.45 14 5.4
      vertex 17.05 14 5.4
      vertex 17.05 21 5.4
    endloop
  endfacet
  facet normal 0 0 1
    outer loop
      vertex 17.05 14 5.4
      vertex 12.45 14 5.4
      vertex 17.05 12 5.4
    endloop
  endfacet
  facet normal 0 0 1
    outer loop
      vertex 12.45 14 5.4
      vertex 17.05 21 5.4
      vertex 12.45 21 5.4
    endloop
  endfacet
  facet normal 0 0 1
    outer loop
      vertex 26.4818 28.0645 5.4
      vertex 12.45 21 5.4
      vertex 17.05 21 5.4
    endloop
  endfacet
  facet normal 0 0 1
    outer loop
      vertex 1.2 30 5.4
      vertex 12.45 21 5.4
      vertex 26.4818 28.0645 5.4
    endloop
  endfacet
  facet normal 0 0 1
    outer loop
      vertex 0 28.8 5.4
      vertex 6.05 14 5.4
      vertex 6.05 21 5.4
    endloop
  endfacet
  facet normal 0 0 1
    outer loop
      vertex 0 1.2 5.4
      vertex 6.05 14 5.4
      vertex 0 28.8 5.4
    endloop
  endfacet
  facet normal -0 0 1
    outer loop
      vertex 0 28.8 5.4
      vertex 6.05 21 5.4
      vertex 1.2 30 5.4
    endloop
  endfacet
  facet normal 0 0 1
    outer loop
      vertex 12.45 21 5.4
      vertex 1.2 30 5.4
      vertex 6.05 21 5.4
    endloop
  endfacet
  facet normal 0 0 1
    outer loop
      vertex 26.918 28.0645 5.4
      vertex 1.2 30 5.4
      vertex 26.4818 28.0645 5.4
    endloop
  endfacet
  facet normal -0 0 1
    outer loop
      vertex 56.45 12 5.4
      vertex 64.5 1.2 5.4
      vertex 56.45 14 5.4
    endloop
  endfacet
  facet normal -0 0 1
    outer loop
      vertex 56.45 5 5.4
      vertex 64.5 1.2 5.4
      vertex 56.45 12 5.4
    endloop
  endfacet
  facet normal 0 0 1
    outer loop
      vertex 64.5 1.2 5.4
      vertex 56.45 5 5.4
      vertex 63.3 0 5.4
    endloop
  endfacet
  facet normal -0 0 1
    outer loop
      vertex 50.05 5 5.4
      vertex 63.3 0 5.4
      vertex 56.45 5 5.4
    endloop
  endfacet
  facet normal 0 0 1
    outer loop
      vertex 45.45 12 5.4
      vertex 50.05 12 5.4
      vertex 45.45 14 5.4
    endloop
  endfacet
  facet normal 0 0 1
    outer loop
      vertex 50.05 12 5.4
      vertex 45.45 12 5.4
      vertex 50.05 5 5.4
    endloop
  endfacet
  facet normal 0 0 1
    outer loop
      vertex 45.45 5 5.4
      vertex 50.05 5 5.4
      vertex 45.45 12 5.4
    endloop
  endfacet
  facet normal -0 0 1
    outer loop
      vertex 45.45 5 5.4
      vertex 63.3 0 5.4
      vertex 50.05 5 5.4
    endloop
  endfacet
  facet normal -0 0 1
    outer loop
      vertex 39.05 5 5.4
      vertex 63.3 0 5.4
      vertex 45.45 5 5.4
    endloop
  endfacet
  facet normal -0 0 1
    outer loop
      vertex 36.9489 25.007 5.4
      vertex 39.05 21 5.4
      vertex 37.9992 27.726 5.4
    endloop
  endfacet
  facet normal 0 0 1
    outer loop
      vertex 36.9489 25.007 5.4
      vertex 37.9992 27.726 5.4
      vertex 36.9489 27.726 5.4
    endloop
  endfacet
  facet normal 0 0 1
    outer loop
      vertex 34.45 21 5.4
      vertex 39.05 21 5.4
      vertex 36.9489 25.007 5.4
    endloop
  endfacet
  facet normal 0 0 1
    outer loop
      vertex 34.45 21 5.4
      vertex 36.9489 25.007 5.4
      vertex 36.5366 25.007 5.4
    endloop
  endfacet
  facet normal 0 0 1
    outer loop
      vertex 35.0992 25.007 5.4
      vertex 36.5366 25.007 5.4
      vertex 35.4863 27.726 5.4
    endloop
  endfacet
  facet normal 0 0 1
    outer loop
      vertex 35.0992 25.007 5.4
      vertex 35.4863 27.726 5.4
      vertex 35.0992 28.0645 5.4
    endloop
  endfacet
  facet normal 0 0 1
    outer loop
      vertex 34.45 21 5.4
      vertex 36.5366 25.007 5.4
      vertex 35.0992 25.007 5.4
    endloop
  endfacet
  facet normal 0 0 1
    outer loop
      vertex 34.45 21 5.4
      vertex 35.0992 25.007 5.4
      vertex 34.6001 25.007 5.4
    endloop
  endfacet
  facet normal 0 0 1
    outer loop
      vertex 39.05 21 5.4
      vertex 34.45 21 5.4
      vertex 34.45 14 5.4
    endloop
  endfacet
  facet normal 0 0 1
    outer loop
      vertex 34.45 12 5.4
      vertex 39.05 12 5.4
      vertex 34.45 14 5.4
    endloop
  endfacet
  facet normal 0 0 1
    outer loop
      vertex 39.05 12 5.4
      vertex 34.45 12 5.4
      vertex 39.05 5 5.4
    endloop
  endfacet
  facet normal 0 0 1
    outer loop
      vertex 34.45 5 5.4
      vertex 39.05 5 5.4
      vertex 34.45 12 5.4
    endloop
  endfacet
  facet normal -0 0 1
    outer loop
      vertex 34.45 5 5.4
      vertex 63.3 0 5.4
      vertex 39.05 5 5.4
    endloop
  endfacet
  facet normal 0 0 1
    outer loop
      vertex 1.2 0 5.4
      vertex 34.45 5 5.4
      vertex 28.05 5 5.4
    endloop
  endfacet
  facet normal 0 0 1
    outer loop
      vertex 23.45 14 5.4
      vertex 28.05 14 5.4
      vertex 23.45 21 5.4
    endloop
  endfacet
  facet normal 0 0 1
    outer loop
      vertex 28.05 14 5.4
      vertex 23.45 14 5.4
      vertex 28.05 12 5.4
    endloop
  endfacet
  facet normal 0 0 1
    outer loop
      vertex 23.45 12 5.4
      vertex 28.05 12 5.4
      vertex 23.45 14 5.4
    endloop
  endfacet
  facet normal 0 0 1
    outer loop
      vertex 28.05 12 5.4
      vertex 23.45 12 5.4
      vertex 28.05 5 5.4
    endloop
  endfacet
  facet normal 0 0 1
    outer loop
      vertex 23.45 5 5.4
      vertex 28.05 5 5.4
      vertex 23.45 12 5.4
    endloop
  endfacet
  facet normal 0 0 1
    outer loop
      vertex 1.2 0 5.4
      vertex 28.05 5 5.4
      vertex 23.45 5 5.4
    endloop
  endfacet
  facet normal 0 0 1
    outer loop
      vertex 1.2 0 5.4
      vertex 23.45 5 5.4
      vertex 17.05 5 5.4
    endloop
  endfacet
  facet normal 0 0 1
    outer loop
      vertex 12.45 12 5.4
      vertex 17.05 12 5.4
      vertex 12.45 14 5.4
    endloop
  endfacet
  facet normal 0 0 1
    outer loop
      vertex 17.05 12 5.4
      vertex 12.45 12 5.4
      vertex 17.05 5 5.4
    endloop
  endfacet
  facet normal 0 0 1
    outer loop
      vertex 12.45 5 5.4
      vertex 17.05 5 5.4
      vertex 12.45 12 5.4
    endloop
  endfacet
  facet normal 0 0 1
    outer loop
      vertex 1.2 0 5.4
      vertex 17.05 5 5.4
      vertex 12.45 5 5.4
    endloop
  endfacet
  facet normal 0 0 1
    outer loop
      vertex 1.2 0 5.4
      vertex 12.45 5 5.4
      vertex 6.05 5 5.4
    endloop
  endfacet
  facet normal 0 0 1
    outer loop
      vertex 34.45 5 5.4
      vertex 1.2 0 5.4
      vertex 63.3 0 5.4
    endloop
  endfacet
  facet normal 0 0 1
    outer loop
      vertex 6.05 14 5.4
      vertex 0 1.2 5.4
      vertex 6.05 12 5.4
    endloop
  endfacet
  facet normal 0 0 1
    outer loop
      vertex 6.05 12 5.4
      vertex 0 1.2 5.4
      vertex 6.05 5 5.4
    endloop
  endfacet
  facet normal 0 0 1
    outer loop
      vertex 6.05 5 5.4
      vertex 0 1.2 5.4
      vertex 1.2 0 5.4
    endloop
  endfacet
  facet normal 0 0 1
    outer loop
      vertex 34.745 25.5599 5.4
      vertex 33.0984 28.0645 5.4
      vertex 34.752 25.4432 5.4
    endloop
  endfacet
  facet normal 0 0 1
    outer loop
      vertex 34.7392 25.6671 5.4
      vertex 33.0984 28.0645 5.4
      vertex 34.745 25.5599 5.4
    endloop
  endfacet
  facet normal 0 0 1
    outer loop
      vertex 34.7344 25.7647 5.4
      vertex 33.0984 28.0645 5.4
      vertex 34.7392 25.6671 5.4
    endloop
  endfacet
  facet normal 0 0 1
    outer loop
      vertex 34.7307 25.8527 5.4
      vertex 33.0984 28.0645 5.4
      vertex 34.7344 25.7647 5.4
    endloop
  endfacet
  facet normal 0 0 1
    outer loop
      vertex 34.728 25.9312 5.4
      vertex 33.0984 28.0645 5.4
      vertex 34.7307 25.8527 5.4
    endloop
  endfacet
  facet normal 0 0 1
    outer loop
      vertex 34.7264 26.0001 5.4
      vertex 33.0984 28.0645 5.4
      vertex 34.728 25.9312 5.4
    endloop
  endfacet
  facet normal 0 0 1
    outer loop
      vertex 33.0984 28.0645 5.4
      vertex 34.7264 26.0001 5.4
      vertex 34.7259 26.0594 5.4
    endloop
  endfacet
  facet normal 0 0 1
    outer loop
      vertex 34.6001 25.007 5.4
      vertex 32.9856 25.007 5.4
      vertex 34.45 21 5.4
    endloop
  endfacet
  facet normal -0 0 1
    outer loop
      vertex 32.6167 25.007 5.4
      vertex 34.45 21 5.4
      vertex 32.9856 25.007 5.4
    endloop
  endfacet
  facet normal 0 0 1
    outer loop
      vertex 32.1304 25.007 5.4
      vertex 32.6167 25.007 5.4
      vertex 32.1304 25.3455 5.4
    endloop
  endfacet
  facet normal 0 0 1
    outer loop
      vertex 32.6167 25.007 5.4
      vertex 32.1304 25.007 5.4
      vertex 34.45 21 5.4
    endloop
  endfacet
  facet normal 0 0 1
    outer loop
      vertex 28.05 21 5.4
      vertex 32.1304 25.007 5.4
      vertex 29.7218 25.007 5.4
    endloop
  endfacet
  facet normal 0 0 1
    outer loop
      vertex 28.1592 25.007 5.4
      vertex 29.7218 25.007 5.4
      vertex 29.407 28.0645 5.4
    endloop
  endfacet
  facet normal 0 0 1
    outer loop
      vertex 28.05 21 5.4
      vertex 29.7218 25.007 5.4
      vertex 28.1592 25.007 5.4
    endloop
  endfacet
  facet normal 0 0 1
    outer loop
      vertex 32.1304 25.007 5.4
      vertex 28.05 21 5.4
      vertex 34.45 21 5.4
    endloop
  endfacet
  facet normal 0 0 1
    outer loop
      vertex 23.45 21 5.4
      vertex 27.7296 25.007 5.4
      vertex 26.4818 28.0645 5.4
    endloop
  endfacet
  facet normal 0 0 1
    outer loop
      vertex 27.7296 25.007 5.4
      vertex 23.45 21 5.4
      vertex 28.05 21 5.4
    endloop
  endfacet
  facet normal 0 0 1
    outer loop
      vertex 28.05 21 5.4
      vertex 23.45 21 5.4
      vertex 28.05 14 5.4
    endloop
  endfacet
  facet normal -0 0 1
    outer loop
      vertex 27.7296 25.007 5.4
      vertex 28.05 21 5.4
      vertex 28.1592 25.007 5.4
    endloop
  endfacet
  facet normal 0 0 1
    outer loop
      vertex 31.9113 26.7452 5.4
      vertex 32.6167 28.0645 5.4
      vertex 32.0415 27.726 5.4
    endloop
  endfacet
  facet normal 0 0 1
    outer loop
      vertex 31.9113 26.411 5.4
      vertex 32.6167 28.0645 5.4
      vertex 31.9113 26.7452 5.4
    endloop
  endfacet
  facet normal 0 0 1
    outer loop
      vertex 32.6167 25.007 5.4
      vertex 31.9113 26.411 5.4
      vertex 32.1304 25.3455 5.4
    endloop
  endfacet
  facet normal 0 0 1
    outer loop
      vertex 30.1362 25.3455 5.4
      vertex 31.9113 26.411 5.4
      vertex 30.1362 26.411 5.4
    endloop
  endfacet
  facet normal 0 0 1
    outer loop
      vertex 31.9113 26.411 5.4
      vertex 30.1362 25.3455 5.4
      vertex 32.1304 25.3455 5.4
    endloop
  endfacet
  facet normal -0.707108 0.707106 0
    outer loop
      vertex 0.800001 29.6 3
      vertex 1.2 30 5.4
      vertex 1.2 30 3
    endloop
  endfacet
  facet normal -0.707106 0.707107 0
    outer loop
      vertex 0 28.8 5.4
      vertex 0.800001 29.6 3
      vertex 0 28.8 3
    endloop
  endfacet
  facet normal -0.707107 0.707107 -2.94628e-07
    outer loop
      vertex 0.800001 29.6 3
      vertex 0 28.8 5.4
      vertex 1.2 30 5.4
    endloop
  endfacet
  facet normal -0.707108 -0.707105 0
    outer loop
      vertex 0.799997 0.4 3
      vertex 0 1.2 5.4
      vertex 0 1.2 3
    endloop
  endfacet
  facet normal -0.707104 -0.707109 -0
    outer loop
      vertex 1.2 0 5.4
      vertex 0.799997 0.4 3
      vertex 1.2 0 3
    endloop
  endfacet
  facet normal -0.707107 -0.707107 8.83883e-07
    outer loop
      vertex 0.799997 0.4 3
      vertex 1.2 0 5.4
      vertex 0 1.2 5.4
    endloop
  endfacet
  facet normal 0 -1 0
    outer loop
      vertex 1.2 0 3
      vertex 63.3 0 5.4
      vertex 1.2 0 5.4
    endloop
  endfacet
  facet normal 0 -1 -0
    outer loop
      vertex 63.3 0 5.4
      vertex 1.2 0 3
      vertex 63.3 0 3
    endloop
  endfacet
  facet normal 0.707107 0.707107 0
    outer loop
      vertex 63.3 30 5.4
      vertex 63.7 29.6 3
      vertex 63.3 30 3
    endloop
  endfacet
  facet normal 0.707107 0.707107 1.74455e-15
    outer loop
      vertex 64.5 28.8 5.4
      vertex 63.7 29.6 3
      vertex 63.3 30 5.4
    endloop
  endfacet
  facet normal 0.707107 0.707107 0
    outer loop
      vertex 63.7 29.6 3
      vertex 64.5 28.8 5.4
      vertex 64.5 28.8 3
    endloop
  endfacet
  facet normal 1 -0 0
    outer loop
      vertex 64.5 1.2 5.4
      vertex 64.5 28.8 3
      vertex 64.5 28.8 5.4
    endloop
  endfacet
  facet normal 1 0 0
    outer loop
      vertex 64.5 28.8 3
      vertex 64.5 1.2 5.4
      vertex 64.5 1.2 3
    endloop
  endfacet
  facet normal -1 0 0
    outer loop
      vertex 1.65 0.4 4.44089e-16
      vertex 1.65 29.6 3
      vertex 1.65 29.6 4.44089e-16
    endloop
  endfacet
  facet normal -1 -0 0
    outer loop
      vertex 1.65 29.6 3
      vertex 1.65 0.4 4.44089e-16
      vertex 1.65 0.4 3
    endloop
  endfacet
  facet normal 1 -0 0
    outer loop
      vertex 62.85 0.4 1.35001
      vertex 62.85 29.6 4.44089e-16
      vertex 62.85 29.6 1.35001
    endloop
  endfacet
  facet normal 1 0 0
    outer loop
      vertex 62.85 29.6 4.44089e-16
      vertex 62.85 0.4 1.35001
      vertex 62.85 0.4 4.44089e-16
    endloop
  endfacet
  facet normal 0 0 -1
    outer loop
      vertex 6.05 12 4.44089e-16
      vertex 12.45 14 4.44089e-16
      vertex 12.45 12 4.44089e-16
    endloop
  endfacet
  facet normal -0 0 -1
    outer loop
      vertex 12.45 14 4.44089e-16
      vertex 6.05 12 4.44089e-16
      vertex 6.05 14 4.44089e-16
    endloop
  endfacet
  facet normal 0 0 -1
    outer loop
      vertex 17.05 12 4.44089e-16
      vertex 23.45 14 4.44089e-16
      vertex 23.45 12 4.44089e-16
    endloop
  endfacet
  facet normal -0 0 -1
    outer loop
      vertex 23.45 14 4.44089e-16
      vertex 17.05 12 4.44089e-16
      vertex 17.05 14 4.44089e-16
    endloop
  endfacet
  facet normal 0 0 -1
    outer loop
      vertex 28.05 12 4.44089e-16
      vertex 34.45 14 4.44089e-16
      vertex 34.45 12 4.44089e-16
    endloop
  endfacet
  facet normal -0 0 -1
    outer loop
      vertex 34.45 14 4.44089e-16
      vertex 28.05 12 4.44089e-16
      vertex 28.05 14 4.44089e-16
    endloop
  endfacet
  facet normal 0 0 -1
    outer loop
      vertex 39.05 12 4.44089e-16
      vertex 45.45 14 4.44089e-16
      vertex 45.45 12 4.44089e-16
    endloop
  endfacet
  facet normal -0 0 -1
    outer loop
      vertex 45.45 14 4.44089e-16
      vertex 39.05 12 4.44089e-16
      vertex 39.05 14 4.44089e-16
    endloop
  endfacet
  facet normal 0 0 -1
    outer loop
      vertex 50.05 12 4.44089e-16
      vertex 56.45 14 4.44089e-16
      vertex 56.45 12 4.44089e-16
    endloop
  endfacet
  facet normal -0 0 -1
    outer loop
      vertex 56.45 14 4.44089e-16
      vertex 50.05 12 4.44089e-16
      vertex 50.05 14 4.44089e-16
    endloop
  endfacet
  facet normal 0 0 -1
    outer loop
      vertex 56.45 12 4.44089e-16
      vertex 62.85 0.4 4.44089e-16
      vertex 56.45 5 4.44089e-16
    endloop
  endfacet
  facet normal 0 0 -1
    outer loop
      vertex 62.85 0.4 4.44089e-16
      vertex 50.05 5 4.44089e-16
      vertex 56.45 5 4.44089e-16
    endloop
  endfacet
  facet normal 0 0 -1
    outer loop
      vertex 45.45 12 4.44089e-16
      vertex 50.05 12 4.44089e-16
      vertex 50.05 5 4.44089e-16
    endloop
  endfacet
  facet normal 0 0 -1
    outer loop
      vertex 50.05 12 4.44089e-16
      vertex 45.45 12 4.44089e-16
      vertex 50.05 14 4.44089e-16
    endloop
  endfacet
  facet normal 0 0 -1
    outer loop
      vertex 45.45 12 4.44089e-16
      vertex 50.05 5 4.44089e-16
      vertex 45.45 5 4.44089e-16
    endloop
  endfacet
  facet normal 0 0 -1
    outer loop
      vertex 62.85 0.4 4.44089e-16
      vertex 45.45 5 4.44089e-16
      vertex 50.05 5 4.44089e-16
    endloop
  endfacet
  facet normal 0 0 -1
    outer loop
      vertex 62.85 0.4 4.44089e-16
      vertex 39.05 5 4.44089e-16
      vertex 45.45 5 4.44089e-16
    endloop
  endfacet
  facet normal 0 0 -1
    outer loop
      vertex 34.45 12 4.44089e-16
      vertex 39.05 12 4.44089e-16
      vertex 39.05 5 4.44089e-16
    endloop
  endfacet
  facet normal 0 0 -1
    outer loop
      vertex 39.05 12 4.44089e-16
      vertex 34.45 12 4.44089e-16
      vertex 39.05 14 4.44089e-16
    endloop
  endfacet
  facet normal 0 0 -1
    outer loop
      vertex 34.45 12 4.44089e-16
      vertex 39.05 5 4.44089e-16
      vertex 34.45 5 4.44089e-16
    endloop
  endfacet
  facet normal 0 0 -1
    outer loop
      vertex 62.85 0.4 4.44089e-16
      vertex 34.45 5 4.44089e-16
      vertex 39.05 5 4.44089e-16
    endloop
  endfacet
  facet normal 0 0 -1
    outer loop
      vertex 1.65 0.4 4.44089e-16
      vertex 34.45 5 4.44089e-16
      vertex 62.85 0.4 4.44089e-16
    endloop
  endfacet
  facet normal 0 0 -1
    outer loop
      vertex 23.45 12 4.44089e-16
      vertex 28.05 12 4.44089e-16
      vertex 28.05 5 4.44089e-16
    endloop
  endfacet
  facet normal 0 0 -1
    outer loop
      vertex 28.05 12 4.44089e-16
      vertex 23.45 12 4.44089e-16
      vertex 28.05 14 4.44089e-16
    endloop
  endfacet
  facet normal 0 0 -1
    outer loop
      vertex 23.45 12 4.44089e-16
      vertex 28.05 5 4.44089e-16
      vertex 23.45 5 4.44089e-16
    endloop
  endfacet
  facet normal -0 0 -1
    outer loop
      vertex 34.45 5 4.44089e-16
      vertex 1.65 0.4 4.44089e-16
      vertex 28.05 5 4.44089e-16
    endloop
  endfacet
  facet normal -0 0 -1
    outer loop
      vertex 28.05 5 4.44089e-16
      vertex 1.65 0.4 4.44089e-16
      vertex 23.45 5 4.44089e-16
    endloop
  endfacet
  facet normal 0 0 -1
    outer loop
      vertex 12.45 12 4.44089e-16
      vertex 17.05 12 4.44089e-16
      vertex 17.05 5 4.44089e-16
    endloop
  endfacet
  facet normal 0 0 -1
    outer loop
      vertex 17.05 12 4.44089e-16
      vertex 12.45 12 4.44089e-16
      vertex 17.05 14 4.44089e-16
    endloop
  endfacet
  facet normal 0 0 -1
    outer loop
      vertex 12.45 12 4.44089e-16
      vertex 17.05 5 4.44089e-16
      vertex 12.45 5 4.44089e-16
    endloop
  endfacet
  facet normal -0 0 -1
    outer loop
      vertex 23.45 5 4.44089e-16
      vertex 1.65 0.4 4.44089e-16
      vertex 17.05 5 4.44089e-16
    endloop
  endfacet
  facet normal -0 0 -1
    outer loop
      vertex 17.05 5 4.44089e-16
      vertex 1.65 0.4 4.44089e-16
      vertex 12.45 5 4.44089e-16
    endloop
  endfacet
  facet normal 0 0 -1
    outer loop
      vertex 1.65 0.4 4.44089e-16
      vertex 6.05 12 4.44089e-16
      vertex 6.05 5 4.44089e-16
    endloop
  endfacet
  facet normal -0 0 -1
    outer loop
      vertex 6.05 12 4.44089e-16
      vertex 1.65 0.4 4.44089e-16
      vertex 6.05 14 4.44089e-16
    endloop
  endfacet
  facet normal 0 0 -1
    outer loop
      vertex 1.65 29.6 4.44089e-16
      vertex 6.05 14 4.44089e-16
      vertex 1.65 0.4 4.44089e-16
    endloop
  endfacet
  facet normal -0 0 -1
    outer loop
      vertex 12.45 5 4.44089e-16
      vertex 1.65 0.4 4.44089e-16
      vertex 6.05 5 4.44089e-16
    endloop
  endfacet
  facet normal 0 0 -1
    outer loop
      vertex 56.45 14 4.44089e-16
      vertex 62.85 0.4 4.44089e-16
      vertex 56.45 12 4.44089e-16
    endloop
  endfacet
  facet normal 0 0 -1
    outer loop
      vertex 62.85 0.4 4.44089e-16
      vertex 56.45 14 4.44089e-16
      vertex 62.85 29.6 4.44089e-16
    endloop
  endfacet
  facet normal 0 0 -1
    outer loop
      vertex 56.45 21 4.44089e-16
      vertex 62.85 29.6 4.44089e-16
      vertex 56.45 14 4.44089e-16
    endloop
  endfacet
  facet normal 0 0 -1
    outer loop
      vertex 50.05 21 4.44089e-16
      vertex 62.85 29.6 4.44089e-16
      vertex 56.45 21 4.44089e-16
    endloop
  endfacet
  facet normal 0 0 -1
    outer loop
      vertex 45.45 14 4.44089e-16
      vertex 50.05 14 4.44089e-16
      vertex 45.45 12 4.44089e-16
    endloop
  endfacet
  facet normal 0 0 -1
    outer loop
      vertex 50.05 14 4.44089e-16
      vertex 45.45 14 4.44089e-16
      vertex 50.05 21 4.44089e-16
    endloop
  endfacet
  facet normal 0 0 -1
    outer loop
      vertex 45.45 21 4.44089e-16
      vertex 50.05 21 4.44089e-16
      vertex 45.45 14 4.44089e-16
    endloop
  endfacet
  facet normal 0 0 -1
    outer loop
      vertex 45.45 21 4.44089e-16
      vertex 62.85 29.6 4.44089e-16
      vertex 50.05 21 4.44089e-16
    endloop
  endfacet
  facet normal 0 0 -1
    outer loop
      vertex 39.05 21 4.44089e-16
      vertex 62.85 29.6 4.44089e-16
      vertex 45.45 21 4.44089e-16
    endloop
  endfacet
  facet normal 0 0 -1
    outer loop
      vertex 34.45 14 4.44089e-16
      vertex 39.05 14 4.44089e-16
      vertex 34.45 12 4.44089e-16
    endloop
  endfacet
  facet normal 0 0 -1
    outer loop
      vertex 39.05 14 4.44089e-16
      vertex 34.45 14 4.44089e-16
      vertex 39.05 21 4.44089e-16
    endloop
  endfacet
  facet normal 0 0 -1
    outer loop
      vertex 34.45 21 4.44089e-16
      vertex 39.05 21 4.44089e-16
      vertex 34.45 14 4.44089e-16
    endloop
  endfacet
  facet normal 0 0 -1
    outer loop
      vertex 34.45 21 4.44089e-16
      vertex 62.85 29.6 4.44089e-16
      vertex 39.05 21 4.44089e-16
    endloop
  endfacet
  facet normal 0 0 -1
    outer loop
      vertex 1.65 29.6 4.44089e-16
      vertex 34.45 21 4.44089e-16
      vertex 28.05 21 4.44089e-16
    endloop
  endfacet
  facet normal 0 0 -1
    outer loop
      vertex 23.45 14 4.44089e-16
      vertex 28.05 14 4.44089e-16
      vertex 23.45 12 4.44089e-16
    endloop
  endfacet
  facet normal 0 0 -1
    outer loop
      vertex 28.05 14 4.44089e-16
      vertex 23.45 14 4.44089e-16
      vertex 28.05 21 4.44089e-16
    endloop
  endfacet
  facet normal 0 0 -1
    outer loop
      vertex 23.45 21 4.44089e-16
      vertex 28.05 21 4.44089e-16
      vertex 23.45 14 4.44089e-16
    endloop
  endfacet
  facet normal 0 0 -1
    outer loop
      vertex 1.65 29.6 4.44089e-16
      vertex 28.05 21 4.44089e-16
      vertex 23.45 21 4.44089e-16
    endloop
  endfacet
  facet normal 0 0 -1
    outer loop
      vertex 1.65 29.6 4.44089e-16
      vertex 23.45 21 4.44089e-16
      vertex 17.05 21 4.44089e-16
    endloop
  endfacet
  facet normal 0 0 -1
    outer loop
      vertex 12.45 14 4.44089e-16
      vertex 17.05 14 4.44089e-16
      vertex 12.45 12 4.44089e-16
    endloop
  endfacet
  facet normal 0 0 -1
    outer loop
      vertex 17.05 14 4.44089e-16
      vertex 12.45 14 4.44089e-16
      vertex 17.05 21 4.44089e-16
    endloop
  endfacet
  facet normal 0 0 -1
    outer loop
      vertex 12.45 21 4.44089e-16
      vertex 17.05 21 4.44089e-16
      vertex 12.45 14 4.44089e-16
    endloop
  endfacet
  facet normal 0 0 -1
    outer loop
      vertex 1.65 29.6 4.44089e-16
      vertex 17.05 21 4.44089e-16
      vertex 12.45 21 4.44089e-16
    endloop
  endfacet
  facet normal 0 0 -1
    outer loop
      vertex 1.65 29.6 4.44089e-16
      vertex 12.45 21 4.44089e-16
      vertex 6.05 21 4.44089e-16
    endloop
  endfacet
  facet normal 0 0 -1
    outer loop
      vertex 34.45 21 4.44089e-16
      vertex 1.65 29.6 4.44089e-16
      vertex 62.85 29.6 4.44089e-16
    endloop
  endfacet
  facet normal 0 0 -1
    outer loop
      vertex 6.05 14 4.44089e-16
      vertex 1.65 29.6 4.44089e-16
      vertex 6.05 21 4.44089e-16
    endloop
  endfacet
  facet normal 1 -0 0
    outer loop
      vertex 6.05 5 5.4
      vertex 6.05 12 4.44089e-16
      vertex 6.05 12 5.4
    endloop
  endfacet
  facet normal 1 0 0
    outer loop
      vertex 6.05 12 4.44089e-16
      vertex 6.05 5 5.4
      vertex 6.05 5 4.44089e-16
    endloop
  endfacet
  facet normal 0 -1 0
    outer loop
      vertex 6.05 12 4.44089e-16
      vertex 12.45 12 5.4
      vertex 6.05 12 5.4
    endloop
  endfacet
  facet normal 0 -1 -0
    outer loop
      vertex 12.45 12 5.4
      vertex 6.05 12 4.44089e-16
      vertex 12.45 12 4.44089e-16
    endloop
  endfacet
  facet normal -1 0 0
    outer loop
      vertex 12.45 5 4.44089e-16
      vertex 12.45 12 5.4
      vertex 12.45 12 4.44089e-16
    endloop
  endfacet
  facet normal -1 -0 0
    outer loop
      vertex 12.45 12 5.4
      vertex 12.45 5 4.44089e-16
      vertex 12.45 5 5.4
    endloop
  endfacet
  facet normal 0 1 -0
    outer loop
      vertex 12.45 5 4.44089e-16
      vertex 6.05 5 5.4
      vertex 12.45 5 5.4
    endloop
  endfacet
  facet normal 0 1 0
    outer loop
      vertex 6.05 5 5.4
      vertex 12.45 5 4.44089e-16
      vertex 6.05 5 4.44089e-16
    endloop
  endfacet
  facet normal 1 -0 0
    outer loop
      vertex 6.05 14 5.4
      vertex 6.05 21 4.44089e-16
      vertex 6.05 21 5.4
    endloop
  endfacet
  facet normal 1 0 0
    outer loop
      vertex 6.05 21 4.44089e-16
      vertex 6.05 14 5.4
      vertex 6.05 14 4.44089e-16
    endloop
  endfacet
  facet normal 0 -1 0
    outer loop
      vertex 6.05 21 4.44089e-16
      vertex 12.45 21 5.4
      vertex 6.05 21 5.4
    endloop
  endfacet
  facet normal 0 -1 -0
    outer loop
      vertex 12.45 21 5.4
      vertex 6.05 21 4.44089e-16
      vertex 12.45 21 4.44089e-16
    endloop
  endfacet
  facet normal -1 0 0
    outer loop
      vertex 12.45 14 4.44089e-16
      vertex 12.45 21 5.4
      vertex 12.45 21 4.44089e-16
    endloop
  endfacet
  facet normal -1 -0 0
    outer loop
      vertex 12.45 21 5.4
      vertex 12.45 14 4.44089e-16
      vertex 12.45 14 5.4
    endloop
  endfacet
  facet normal 0 1 -0
    outer loop
      vertex 12.45 14 4.44089e-16
      vertex 6.05 14 5.4
      vertex 12.45 14 5.4
    endloop
  endfacet
  facet normal 0 1 0
    outer loop
      vertex 6.05 14 5.4
      vertex 12.45 14 4.44089e-16
      vertex 6.05 14 4.44089e-16
    endloop
  endfacet
  facet normal 1 -0 0
    outer loop
      vertex 17.05 5 5.4
      vertex 17.05 12 4.44089e-16
      vertex 17.05 12 5.4
    endloop
  endfacet
  facet normal 1 0 0
    outer loop
      vertex 17.05 12 4.44089e-16
      vertex 17.05 5 5.4
      vertex 17.05 5 4.44089e-16
    endloop
  endfacet
  facet normal 0 -1 0
    outer loop
      vertex 17.05 12 4.44089e-16
      vertex 23.45 12 5.4
      vertex 17.05 12 5.4
    endloop
  endfacet
  facet normal 0 -1 -0
    outer loop
      vertex 23.45 12 5.4
      vertex 17.05 12 4.44089e-16
      vertex 23.45 12 4.44089e-16
    endloop
  endfacet
  facet normal -1 0 0
    outer loop
      vertex 23.45 5 4.44089e-16
      vertex 23.45 12 5.4
      vertex 23.45 12 4.44089e-16
    endloop
  endfacet
  facet normal -1 -0 0
    outer loop
      vertex 23.45 12 5.4
      vertex 23.45 5 4.44089e-16
      vertex 23.45 5 5.4
    endloop
  endfacet
  facet normal 0 1 -0
    outer loop
      vertex 23.45 5 4.44089e-16
      vertex 17.05 5 5.4
      vertex 23.45 5 5.4
    endloop
  endfacet
  facet normal 0 1 0
    outer loop
      vertex 17.05 5 5.4
      vertex 23.45 5 4.44089e-16
      vertex 17.05 5 4.44089e-16
    endloop
  endfacet
  facet normal 1 -0 0
    outer loop
      vertex 17.05 14 5.4
      vertex 17.05 21 4.44089e-16
      vertex 17.05 21 5.4
    endloop
  endfacet
  facet normal 1 0 0
    outer loop
      vertex 17.05 21 4.44089e-16
      vertex 17.05 14 5.4
      vertex 17.05 14 4.44089e-16
    endloop
  endfacet
  facet normal 0 -1 0
    outer loop
      vertex 17.05 21 4.44089e-16
      vertex 23.45 21 5.4
      vertex 17.05 21 5.4
    endloop
  endfacet
  facet normal 0 -1 -0
    outer loop
      vertex 23.45 21 5.4
      vertex 17.05 21 4.44089e-16
      vertex 23.45 21 4.44089e-16
    endloop
  endfacet
  facet normal -1 0 0
    outer loop
      vertex 23.45 14 4.44089e-16
      vertex 23.45 21 5.4
      vertex 23.45 21 4.44089e-16
    endloop
  endfacet
  facet normal -1 -0 0
    outer loop
      vertex 23.45 21 5.4
      vertex 23.45 14 4.44089e-16
      vertex 23.45 14 5.4
    endloop
  endfacet
  facet normal 0 1 -0
    outer loop
      vertex 23.45 14 4.44089e-16
      vertex 17.05 14 5.4
      vertex 23.45 14 5.4
    endloop
  endfacet
  facet normal 0 1 0
    outer loop
      vertex 17.05 14 5.4
      vertex 23.45 14 4.44089e-16
      vertex 17.05 14 4.44089e-16
    endloop
  endfacet
  facet normal 1 -0 0
    outer loop
      vertex 28.05 5 5.4
      vertex 28.05 12 4.44089e-16
      vertex 28.05 12 5.4
    endloop
  endfacet
  facet normal 1 0 0
    outer loop
      vertex 28.05 12 4.44089e-16
      vertex 28.05 5 5.4
      vertex 28.05 5 4.44089e-16
    endloop
  endfacet
  facet normal 0 -1 0
    outer loop
      vertex 28.05 12 4.44089e-16
      vertex 34.45 12 5.4
      vertex 28.05 12 5.4
    endloop
  endfacet
  facet normal 0 -1 -0
    outer loop
      vertex 34.45 12 5.4
      vertex 28.05 12 4.44089e-16
      vertex 34.45 12 4.44089e-16
    endloop
  endfacet
  facet normal -1 0 0
    outer loop
      vertex 34.45 5 4.44089e-16
      vertex 34.45 12 5.4
      vertex 34.45 12 4.44089e-16
    endloop
  endfacet
  facet normal -1 -0 0
    outer loop
      vertex 34.45 12 5.4
      vertex 34.45 5 4.44089e-16
      vertex 34.45 5 5.4
    endloop
  endfacet
  facet normal 0 1 -0
    outer loop
      vertex 34.45 5 4.44089e-16
      vertex 28.05 5 5.4
      vertex 34.45 5 5.4
    endloop
  endfacet
  facet normal 0 1 0
    outer loop
      vertex 28.05 5 5.4
      vertex 34.45 5 4.44089e-16
      vertex 28.05 5 4.44089e-16
    endloop
  endfacet
  facet normal 1 -0 0
    outer loop
      vertex 28.05 14 5.4
      vertex 28.05 21 4.44089e-16
      vertex 28.05 21 5.4
    endloop
  endfacet
  facet normal 1 0 0
    outer loop
      vertex 28.05 21 4.44089e-16
      vertex 28.05 14 5.4
      vertex 28.05 14 4.44089e-16
    endloop
  endfacet
  facet normal 0 -1 0
    outer loop
      vertex 28.05 21 4.44089e-16
      vertex 34.45 21 5.4
      vertex 28.05 21 5.4
    endloop
  endfacet
  facet normal 0 -1 -0
    outer loop
      vertex 34.45 21 5.4
      vertex 28.05 21 4.44089e-16
      vertex 34.45 21 4.44089e-16
    endloop
  endfacet
  facet normal -1 0 0
    outer loop
      vertex 34.45 14 4.44089e-16
      vertex 34.45 21 5.4
      vertex 34.45 21 4.44089e-16
    endloop
  endfacet
  facet normal -1 -0 0
    outer loop
      vertex 34.45 21 5.4
      vertex 34.45 14 4.44089e-16
      vertex 34.45 14 5.4
    endloop
  endfacet
  facet normal 0 1 -0
    outer loop
      vertex 34.45 14 4.44089e-16
      vertex 28.05 14 5.4
      vertex 34.45 14 5.4
    endloop
  endfacet
  facet normal 0 1 0
    outer loop
      vertex 28.05 14 5.4
      vertex 34.45 14 4.44089e-16
      vertex 28.05 14 4.44089e-16
    endloop
  endfacet
  facet normal 1 -0 0
    outer loop
      vertex 39.05 5 5.4
      vertex 39.05 12 4.44089e-16
      vertex 39.05 12 5.4
    endloop
  endfacet
  facet normal 1 0 0
    outer loop
      vertex 39.05 12 4.44089e-16
      vertex 39.05 5 5.4
      vertex 39.05 5 4.44089e-16
    endloop
  endfacet
  facet normal 0 -1 0
    outer loop
      vertex 39.05 12 4.44089e-16
      vertex 45.45 12 5.4
      vertex 39.05 12 5.4
    endloop
  endfacet
  facet normal 0 -1 -0
    outer loop
      vertex 45.45 12 5.4
      vertex 39.05 12 4.44089e-16
      vertex 45.45 12 4.44089e-16
    endloop
  endfacet
  facet normal -1 0 0
    outer loop
      vertex 45.45 5 4.44089e-16
      vertex 45.45 12 5.4
      vertex 45.45 12 4.44089e-16
    endloop
  endfacet
  facet normal -1 -0 0
    outer loop
      vertex 45.45 12 5.4
      vertex 45.45 5 4.44089e-16
      vertex 45.45 5 5.4
    endloop
  endfacet
  facet normal 0 1 -0
    outer loop
      vertex 45.45 5 4.44089e-16
      vertex 39.05 5 5.4
      vertex 45.45 5 5.4
    endloop
  endfacet
  facet normal 0 1 0
    outer loop
      vertex 39.05 5 5.4
      vertex 45.45 5 4.44089e-16
      vertex 39.05 5 4.44089e-16
    endloop
  endfacet
  facet normal 1 -0 0
    outer loop
      vertex 39.05 14 5.4
      vertex 39.05 21 4.44089e-16
      vertex 39.05 21 5.4
    endloop
  endfacet
  facet normal 1 0 0
    outer loop
      vertex 39.05 21 4.44089e-16
      vertex 39.05 14 5.4
      vertex 39.05 14 4.44089e-16
    endloop
  endfacet
  facet normal 0 -1 0
    outer loop
      vertex 39.05 21 4.44089e-16
      vertex 45.45 21 5.4
      vertex 39.05 21 5.4
    endloop
  endfacet
  facet normal 0 -1 -0
    outer loop
      vertex 45.45 21 5.4
      vertex 39.05 21 4.44089e-16
      vertex 45.45 21 4.44089e-16
    endloop
  endfacet
  facet normal -1 0 0
    outer loop
      vertex 45.45 14 4.44089e-16
      vertex 45.45 21 5.4
      vertex 45.45 21 4.44089e-16
    endloop
  endfacet
  facet normal -1 -0 0
    outer loop
      vertex 45.45 21 5.4
      vertex 45.45 14 4.44089e-16
      vertex 45.45 14 5.4
    endloop
  endfacet
  facet normal 0 1 -0
    outer loop
      vertex 45.45 14 4.44089e-16
      vertex 39.05 14 5.4
      vertex 45.45 14 5.4
    endloop
  endfacet
  facet normal 0 1 0
    outer loop
      vertex 39.05 14 5.4
      vertex 45.45 14 4.44089e-16
      vertex 39.05 14 4.44089e-16
    endloop
  endfacet
  facet normal 1 -0 0
    outer loop
      vertex 50.05 5 5.4
      vertex 50.05 12 4.44089e-16
      vertex 50.05 12 5.4
    endloop
  endfacet
  facet normal 1 0 0
    outer loop
      vertex 50.05 12 4.44089e-16
      vertex 50.05 5 5.4
      vertex 50.05 5 4.44089e-16
    endloop
  endfacet
  facet normal 0 -1 0
    outer loop
      vertex 50.05 12 4.44089e-16
      vertex 56.45 12 5.4
      vertex 50.05 12 5.4
    endloop
  endfacet
  facet normal 0 -1 -0
    outer loop
      vertex 56.45 12 5.4
      vertex 50.05 12 4.44089e-16
      vertex 56.45 12 4.44089e-16
    endloop
  endfacet
  facet normal -1 0 0
    outer loop
      vertex 56.45 5 4.44089e-16
      vertex 56.45 12 5.4
      vertex 56.45 12 4.44089e-16
    endloop
  endfacet
  facet normal -1 -0 0
    outer loop
      vertex 56.45 12 5.4
      vertex 56.45 5 4.44089e-16
      vertex 56.45 5 5.4
    endloop
  endfacet
  facet normal 0 1 -0
    outer loop
      vertex 56.45 5 4.44089e-16
      vertex 50.05 5 5.4
      vertex 56.45 5 5.4
    endloop
  endfacet
  facet normal 0 1 0
    outer loop
      vertex 50.05 5 5.4
      vertex 56.45 5 4.44089e-16
      vertex 50.05 5 4.44089e-16
    endloop
  endfacet
  facet normal 1 -0 0
    outer loop
      vertex 50.05 14 5.4
      vertex 50.05 21 4.44089e-16
      vertex 50.05 21 5.4
    endloop
  endfacet
  facet normal 1 0 0
    outer loop
      vertex 50.05 21 4.44089e-16
      vertex 50.05 14 5.4
      vertex 50.05 14 4.44089e-16
    endloop
  endfacet
  facet normal 0 -1 0
    outer loop
      vertex 50.05 21 4.44089e-16
      vertex 56.45 21 5.4
      vertex 50.05 21 5.4
    endloop
  endfacet
  facet normal 0 -1 -0
    outer loop
      vertex 56.45 21 5.4
      vertex 50.05 21 4.44089e-16
      vertex 56.45 21 4.44089e-16
    endloop
  endfacet
  facet normal -1 0 0
    outer loop
      vertex 56.45 14 4.44089e-16
      vertex 56.45 21 5.4
      vertex 56.45 21 4.44089e-16
    endloop
  endfacet
  facet normal -1 -0 0
    outer loop
      vertex 56.45 21 5.4
      vertex 56.45 14 4.44089e-16
      vertex 56.45 14 5.4
    endloop
  endfacet
  facet normal 0 1 -0
    outer loop
      vertex 56.45 14 4.44089e-16
      vertex 50.05 14 5.4
      vertex 56.45 14 5.4
    endloop
  endfacet
  facet normal 0 1 0
    outer loop
      vertex 50.05 14 5.4
      vertex 56.45 14 4.44089e-16
      vertex 50.05 14 4.44089e-16
    endloop
  endfacet
  facet normal 0 0 1
    outer loop
      vertex 28.1288 25.9119 6
      vertex 29.407 28.0645 6
      vertex 28.9708 28.0645 6
    endloop
  endfacet
  facet normal 0 0 1
    outer loop
      vertex 29.407 28.0645 6
      vertex 28.1288 25.9119 6
      vertex 28.1592 25.007 6
    endloop
  endfacet
  facet normal -0 0 1
    outer loop
      vertex 27.9465 25.3716 6
      vertex 28.1592 25.007 6
      vertex 28.1288 25.9119 6
    endloop
  endfacet
  facet normal 0 0 1
    outer loop
      vertex 27.9465 25.3716 6
      vertex 27.7296 25.007 6
      vertex 28.1592 25.007 6
    endloop
  endfacet
  facet normal 0 0 1
    outer loop
      vertex 27.7643 25.9119 6
      vertex 27.7296 25.007 6
      vertex 27.9465 25.3716 6
    endloop
  endfacet
  facet normal -0 0 1
    outer loop
      vertex 26.4818 28.0645 6
      vertex 27.7643 25.9119 6
      vertex 26.918 28.0645 6
    endloop
  endfacet
  facet normal 0 0 1
    outer loop
      vertex 27.7643 25.9119 6
      vertex 26.4818 28.0645 6
      vertex 27.7296 25.007 6
    endloop
  endfacet
  facet normal 0 0 1
    outer loop
      vertex 32.0415 28.0645 6
      vertex 30.1362 27.726 6
      vertex 32.0415 27.726 6
    endloop
  endfacet
  facet normal 0 0 1
    outer loop
      vertex 29.7218 28.0645 6
      vertex 30.1362 26.7452 6
      vertex 30.1362 27.726 6
    endloop
  endfacet
  facet normal 0 0 1
    outer loop
      vertex 30.1362 26.7452 6
      vertex 29.7218 28.0645 6
      vertex 30.1362 26.411 6
    endloop
  endfacet
  facet normal 0 0 1
    outer loop
      vertex 29.7218 25.007 6
      vertex 30.1362 26.411 6
      vertex 29.7218 28.0645 6
    endloop
  endfacet
  facet normal -0 0 1
    outer loop
      vertex 29.7218 28.0645 6
      vertex 30.1362 27.726 6
      vertex 32.0415 28.0645 6
    endloop
  endfacet
  facet normal -0 0 1
    outer loop
      vertex 30.1362 26.7452 6
      vertex 31.9113 26.411 6
      vertex 31.9113 26.7452 6
    endloop
  endfacet
  facet normal 0 0 1
    outer loop
      vertex 31.9113 26.411 6
      vertex 30.1362 26.7452 6
      vertex 30.1362 26.411 6
    endloop
  endfacet
  facet normal -0 0 1
    outer loop
      vertex 30.1362 25.3455 6
      vertex 32.1304 25.007 6
      vertex 32.1304 25.3455 6
    endloop
  endfacet
  facet normal 0 0 1
    outer loop
      vertex 30.1362 25.3455 6
      vertex 29.7218 25.007 6
      vertex 32.1304 25.007 6
    endloop
  endfacet
  facet normal 0 0 1
    outer loop
      vertex 30.1362 26.411 6
      vertex 29.7218 25.007 6
      vertex 30.1362 25.3455 6
    endloop
  endfacet
  facet normal -0 0 1
    outer loop
      vertex 34.7259 26.0594 6
      vertex 35.0992 25.007 6
      vertex 35.0992 28.0645 6
    endloop
  endfacet
  facet normal 0 0 1
    outer loop
      vertex 35.0992 25.007 6
      vertex 34.745 25.5599 6
      vertex 34.752 25.4432 6
    endloop
  endfacet
  facet normal 0 0 1
    outer loop
      vertex 35.0992 25.007 6
      vertex 34.7392 25.6671 6
      vertex 34.745 25.5599 6
    endloop
  endfacet
  facet normal 0 0 1
    outer loop
      vertex 35.0992 25.007 6
      vertex 34.7344 25.7647 6
      vertex 34.7392 25.6671 6
    endloop
  endfacet
  facet normal 0 0 1
    outer loop
      vertex 35.0992 25.007 6
      vertex 34.7307 25.8527 6
      vertex 34.7344 25.7647 6
    endloop
  endfacet
  facet normal 0 0 1
    outer loop
      vertex 35.0992 25.007 6
      vertex 34.728 25.9312 6
      vertex 34.7307 25.8527 6
    endloop
  endfacet
  facet normal 0 0 1
    outer loop
      vertex 35.0992 25.007 6
      vertex 34.7264 26.0001 6
      vertex 34.728 25.9312 6
    endloop
  endfacet
  facet normal 0 0 1
    outer loop
      vertex 34.7259 26.0594 6
      vertex 35.0992 28.0645 6
      vertex 34.7259 28.0645 6
    endloop
  endfacet
  facet normal 0 0 1
    outer loop
      vertex 35.0992 25.007 6
      vertex 34.7259 26.0594 6
      vertex 34.7264 26.0001 6
    endloop
  endfacet
  facet normal 0 0 1
    outer loop
      vertex 34.752 25.4432 6
      vertex 34.6001 25.007 6
      vertex 35.0992 25.007 6
    endloop
  endfacet
  facet normal -0 0 1
    outer loop
      vertex 32.9639 27.611 6
      vertex 34.752 25.4432 6
      vertex 33.0984 28.0645 6
    endloop
  endfacet
  facet normal 0 0 1
    outer loop
      vertex 34.752 25.4432 6
      vertex 32.9639 27.611 6
      vertex 34.6001 25.007 6
    endloop
  endfacet
  facet normal 0 -0 1
    outer loop
      vertex 32.9639 27.611 6
      vertex 33.0984 28.0645 6
      vertex 32.6167 28.0645 6
    endloop
  endfacet
  facet normal 0 0 1
    outer loop
      vertex 32.6167 28.0645 6
      vertex 32.9856 27.0381 6
      vertex 32.9747 27.4005 6
    endloop
  endfacet
  facet normal 0 0 1
    outer loop
      vertex 32.6167 28.0645 6
      vertex 32.9747 27.4005 6
      vertex 32.9639 27.611 6
    endloop
  endfacet
  facet normal 0 0 1
    outer loop
      vertex 32.9856 27.0381 6
      vertex 32.6167 28.0645 6
      vertex 32.6167 25.007 6
    endloop
  endfacet
  facet normal 0 0 1
    outer loop
      vertex 32.9856 27.0381 6
      vertex 32.6167 25.007 6
      vertex 32.9856 25.007 6
    endloop
  endfacet
  facet normal 0 0 1
    outer loop
      vertex 37.9992 28.0645 6
      vertex 36.9489 27.726 6
      vertex 37.9992 27.726 6
    endloop
  endfacet
  facet normal 0 0 1
    outer loop
      vertex 36.9489 27.726 6
      vertex 36.5366 27.726 6
      vertex 36.9489 25.007 6
    endloop
  endfacet
  facet normal 0 0 1
    outer loop
      vertex 37.9992 28.0645 6
      vertex 36.5366 27.726 6
      vertex 36.9489 27.726 6
    endloop
  endfacet
  facet normal -0 0 1
    outer loop
      vertex 35.4863 28.0645 6
      vertex 36.5366 27.726 6
      vertex 37.9992 28.0645 6
    endloop
  endfacet
  facet normal 0 0 1
    outer loop
      vertex 36.5366 27.726 6
      vertex 35.4863 28.0645 6
      vertex 35.4863 27.726 6
    endloop
  endfacet
  facet normal 0 0 1
    outer loop
      vertex 36.9489 25.007 6
      vertex 36.5366 27.726 6
      vertex 36.5366 25.007 6
    endloop
  endfacet
  facet normal 0 1 -0
    outer loop
      vertex 29.407 28.0645 5.4
      vertex 28.9708 28.0645 6
      vertex 29.407 28.0645 6
    endloop
  endfacet
  facet normal 0 1 0
    outer loop
      vertex 28.9708 28.0645 6
      vertex 29.407 28.0645 5.4
      vertex 28.9708 28.0645 5.4
    endloop
  endfacet
  facet normal -0.93129 0.364279 0
    outer loop
      vertex 28.1288 25.9119 5.4
      vertex 28.9708 28.0645 6
      vertex 28.9708 28.0645 5.4
    endloop
  endfacet
  facet normal -0.93129 0.364279 0
    outer loop
      vertex 28.9708 28.0645 6
      vertex 28.1288 25.9119 5.4
      vertex 28.1288 25.9119 6
    endloop
  endfacet
  facet normal -0.94752 0.319698 0
    outer loop
      vertex 27.9465 25.3716 5.4
      vertex 28.1288 25.9119 6
      vertex 28.1288 25.9119 5.4
    endloop
  endfacet
  facet normal -0.94752 0.319698 0
    outer loop
      vertex 28.1288 25.9119 6
      vertex 27.9465 25.3716 5.4
      vertex 27.9465 25.3716 6
    endloop
  endfacet
  facet normal 0.947573 0.31954 0
    outer loop
      vertex 27.9465 25.3716 6
      vertex 27.7643 25.9119 5.4
      vertex 27.7643 25.9119 6
    endloop
  endfacet
  facet normal 0.947573 0.31954 0
    outer loop
      vertex 27.7643 25.9119 5.4
      vertex 27.9465 25.3716 6
      vertex 27.9465 25.3716 5.4
    endloop
  endfacet
  facet normal 0.930658 0.36589 0
    outer loop
      vertex 27.7643 25.9119 6
      vertex 26.918 28.0645 5.4
      vertex 26.918 28.0645 6
    endloop
  endfacet
  facet normal 0.930658 0.36589 0
    outer loop
      vertex 26.918 28.0645 5.4
      vertex 27.7643 25.9119 6
      vertex 27.7643 25.9119 5.4
    endloop
  endfacet
  facet normal 0 1 -0
    outer loop
      vertex 26.918 28.0645 5.4
      vertex 26.4818 28.0645 6
      vertex 26.918 28.0645 6
    endloop
  endfacet
  facet normal 0 1 0
    outer loop
      vertex 26.4818 28.0645 6
      vertex 26.918 28.0645 5.4
      vertex 26.4818 28.0645 5.4
    endloop
  endfacet
  facet normal -0.925865 -0.377856 0
    outer loop
      vertex 27.7296 25.007 5.4
      vertex 26.4818 28.0645 6
      vertex 26.4818 28.0645 5.4
    endloop
  endfacet
  facet normal -0.925865 -0.377856 0
    outer loop
      vertex 26.4818 28.0645 6
      vertex 27.7296 25.007 5.4
      vertex 27.7296 25.007 6
    endloop
  endfacet
  facet normal 0 -1 0
    outer loop
      vertex 27.7296 25.007 5.4
      vertex 28.1592 25.007 6
      vertex 27.7296 25.007 6
    endloop
  endfacet
  facet normal 0 -1 -0
    outer loop
      vertex 28.1592 25.007 6
      vertex 27.7296 25.007 5.4
      vertex 28.1592 25.007 5.4
    endloop
  endfacet
  facet normal 0.925865 -0.377856 0
    outer loop
      vertex 28.1592 25.007 6
      vertex 29.407 28.0645 5.4
      vertex 29.407 28.0645 6
    endloop
  endfacet
  facet normal 0.925865 -0.377856 0
    outer loop
      vertex 29.407 28.0645 5.4
      vertex 28.1592 25.007 6
      vertex 28.1592 25.007 5.4
    endloop
  endfacet
  facet normal 0 1 -0
    outer loop
      vertex 32.1304 25.3455 5.4
      vertex 30.1362 25.3455 6
      vertex 32.1304 25.3455 6
    endloop
  endfacet
  facet normal 0 1 0
    outer loop
      vertex 30.1362 25.3455 6
      vertex 32.1304 25.3455 5.4
      vertex 30.1362 25.3455 5.4
    endloop
  endfacet
  facet normal 1 -0 0
    outer loop
      vertex 30.1362 25.3455 6
      vertex 30.1362 26.411 5.4
      vertex 30.1362 26.411 6
    endloop
  endfacet
  facet normal 1 0 0
    outer loop
      vertex 30.1362 26.411 5.4
      vertex 30.1362 25.3455 6
      vertex 30.1362 25.3455 5.4
    endloop
  endfacet
  facet normal 0 -1 0
    outer loop
      vertex 30.1362 26.411 5.4
      vertex 31.9113 26.411 6
      vertex 30.1362 26.411 6
    endloop
  endfacet
  facet normal 0 -1 -0
    outer loop
      vertex 31.9113 26.411 6
      vertex 30.1362 26.411 5.4
      vertex 31.9113 26.411 5.4
    endloop
  endfacet
  facet normal 1 -0 0
    outer loop
      vertex 31.9113 26.411 6
      vertex 31.9113 26.7452 5.4
      vertex 31.9113 26.7452 6
    endloop
  endfacet
  facet normal 1 0 0
    outer loop
      vertex 31.9113 26.7452 5.4
      vertex 31.9113 26.411 6
      vertex 31.9113 26.411 5.4
    endloop
  endfacet
  facet normal 0 1 -0
    outer loop
      vertex 31.9113 26.7452 5.4
      vertex 30.1362 26.7452 6
      vertex 31.9113 26.7452 6
    endloop
  endfacet
  facet normal 0 1 0
    outer loop
      vertex 30.1362 26.7452 6
      vertex 31.9113 26.7452 5.4
      vertex 30.1362 26.7452 5.4
    endloop
  endfacet
  facet normal 1 -0 0
    outer loop
      vertex 30.1362 26.7452 6
      vertex 30.1362 27.726 5.4
      vertex 30.1362 27.726 6
    endloop
  endfacet
  facet normal 1 0 0
    outer loop
      vertex 30.1362 27.726 5.4
      vertex 30.1362 26.7452 6
      vertex 30.1362 26.7452 5.4
    endloop
  endfacet
  facet normal 0 -1 0
    outer loop
      vertex 30.1362 27.726 5.4
      vertex 32.0415 27.726 6
      vertex 30.1362 27.726 6
    endloop
  endfacet
  facet normal 0 -1 -0
    outer loop
      vertex 32.0415 27.726 6
      vertex 30.1362 27.726 5.4
      vertex 32.0415 27.726 5.4
    endloop
  endfacet
  facet normal 1 -0 0
    outer loop
      vertex 32.0415 27.726 6
      vertex 32.0415 28.0645 5.4
      vertex 32.0415 28.0645 6
    endloop
  endfacet
  facet normal 1 0 0
    outer loop
      vertex 32.0415 28.0645 5.4
      vertex 32.0415 27.726 6
      vertex 32.0415 27.726 5.4
    endloop
  endfacet
  facet normal 0 1 -0
    outer loop
      vertex 32.0415 28.0645 5.4
      vertex 29.7218 28.0645 6
      vertex 32.0415 28.0645 6
    endloop
  endfacet
  facet normal 0 1 0
    outer loop
      vertex 29.7218 28.0645 6
      vertex 32.0415 28.0645 5.4
      vertex 29.7218 28.0645 5.4
    endloop
  endfacet
  facet normal -1 0 0
    outer loop
      vertex 29.7218 25.007 5.4
      vertex 29.7218 28.0645 6
      vertex 29.7218 28.0645 5.4
    endloop
  endfacet
  facet normal -1 -0 0
    outer loop
      vertex 29.7218 28.0645 6
      vertex 29.7218 25.007 5.4
      vertex 29.7218 25.007 6
    endloop
  endfacet
  facet normal 0 -1 0
    outer loop
      vertex 29.7218 25.007 5.4
      vertex 32.1304 25.007 6
      vertex 29.7218 25.007 6
    endloop
  endfacet
  facet normal 0 -1 -0
    outer loop
      vertex 32.1304 25.007 6
      vertex 29.7218 25.007 5.4
      vertex 32.1304 25.007 5.4
    endloop
  endfacet
  facet normal 1 -0 0
    outer loop
      vertex 32.1304 25.007 6
      vertex 32.1304 25.3455 5.4
      vertex 32.1304 25.3455 6
    endloop
  endfacet
  facet normal 1 0 0
    outer loop
      vertex 32.1304 25.3455 5.4
      vertex 32.1304 25.007 6
      vertex 32.1304 25.007 5.4
    endloop
  endfacet
  facet normal 0.999548 0.0300637 0
    outer loop
      vertex 32.9856 27.0381 6
      vertex 32.9747 27.4005 5.4
      vertex 32.9747 27.4005 6
    endloop
  endfacet
  facet normal 0.999548 0.0300637 0
    outer loop
      vertex 32.9747 27.4005 5.4
      vertex 32.9856 27.0381 6
      vertex 32.9856 27.0381 5.4
    endloop
  endfacet
  facet normal 0.998686 0.051239 0
    outer loop
      vertex 32.9747 27.4005 6
      vertex 32.9639 27.611 5.4
      vertex 32.9639 27.611 6
    endloop
  endfacet
  facet normal 0.998686 0.051239 0
    outer loop
      vertex 32.9639 27.611 5.4
      vertex 32.9747 27.4005 6
      vertex 32.9747 27.4005 5.4
    endloop
  endfacet
  facet normal -0.846724 -0.532032 0
    outer loop
      vertex 34.6001 25.007 5.4
      vertex 32.9639 27.611 6
      vertex 32.9639 27.611 5.4
    endloop
  endfacet
  facet normal -0.846724 -0.532032 0
    outer loop
      vertex 32.9639 27.611 6
      vertex 34.6001 25.007 5.4
      vertex 34.6001 25.007 6
    endloop
  endfacet
  facet normal 0 -1 0
    outer loop
      vertex 34.6001 25.007 5.4
      vertex 35.0992 25.007 6
      vertex 34.6001 25.007 6
    endloop
  endfacet
  facet normal 0 -1 -0
    outer loop
      vertex 35.0992 25.007 6
      vertex 34.6001 25.007 5.4
      vertex 35.0992 25.007 5.4
    endloop
  endfacet
  facet normal 1 -0 0
    outer loop
      vertex 35.0992 25.007 6
      vertex 35.0992 28.0645 5.4
      vertex 35.0992 28.0645 6
    endloop
  endfacet
  facet normal 1 0 0
    outer loop
      vertex 35.0992 28.0645 5.4
      vertex 35.0992 25.007 6
      vertex 35.0992 25.007 5.4
    endloop
  endfacet
  facet normal 0 1 -0
    outer loop
      vertex 35.0992 28.0645 5.4
      vertex 34.7259 28.0645 6
      vertex 35.0992 28.0645 6
    endloop
  endfacet
  facet normal 0 1 0
    outer loop
      vertex 34.7259 28.0645 6
      vertex 35.0992 28.0645 5.4
      vertex 34.7259 28.0645 5.4
    endloop
  endfacet
  facet normal -1 0 0
    outer loop
      vertex 34.7259 26.0594 5.4
      vertex 34.7259 28.0645 6
      vertex 34.7259 28.0645 5.4
    endloop
  endfacet
  facet normal -1 -0 0
    outer loop
      vertex 34.7259 28.0645 6
      vertex 34.7259 26.0594 5.4
      vertex 34.7259 26.0594 6
    endloop
  endfacet
  facet normal -0.999964 -0.0084314 0
    outer loop
      vertex 34.7264 26.0001 5.4
      vertex 34.7259 26.0594 6
      vertex 34.7259 26.0594 5.4
    endloop
  endfacet
  facet normal -0.999964 -0.0084314 0
    outer loop
      vertex 34.7259 26.0594 6
      vertex 34.7264 26.0001 5.4
      vertex 34.7264 26.0001 6
    endloop
  endfacet
  facet normal -0.99973 -0.0232158 0
    outer loop
      vertex 34.728 25.9312 5.4
      vertex 34.7264 26.0001 6
      vertex 34.7264 26.0001 5.4
    endloop
  endfacet
  facet normal -0.99973 -0.0232158 0
    outer loop
      vertex 34.7264 26.0001 6
      vertex 34.728 25.9312 5.4
      vertex 34.728 25.9312 6
    endloop
  endfacet
  facet normal -0.999409 -0.0343746 0
    outer loop
      vertex 34.7307 25.8527 5.4
      vertex 34.728 25.9312 6
      vertex 34.728 25.9312 5.4
    endloop
  endfacet
  facet normal -0.999409 -0.0343746 0
    outer loop
      vertex 34.728 25.9312 6
      vertex 34.7307 25.8527 5.4
      vertex 34.7307 25.8527 6
    endloop
  endfacet
  facet normal -0.999117 -0.0420083 0
    outer loop
      vertex 34.7344 25.7647 5.4
      vertex 34.7307 25.8527 6
      vertex 34.7307 25.8527 5.4
    endloop
  endfacet
  facet normal -0.999117 -0.0420083 0
    outer loop
      vertex 34.7307 25.8527 6
      vertex 34.7344 25.7647 5.4
      vertex 34.7344 25.7647 6
    endloop
  endfacet
  facet normal -0.998793 -0.049121 0
    outer loop
      vertex 34.7392 25.6671 5.4
      vertex 34.7344 25.7647 6
      vertex 34.7344 25.7647 5.4
    endloop
  endfacet
  facet normal -0.998793 -0.049121 0
    outer loop
      vertex 34.7344 25.7647 6
      vertex 34.7392 25.6671 5.4
      vertex 34.7392 25.6671 6
    endloop
  endfacet
  facet normal -0.99854 -0.0540255 0
    outer loop
      vertex 34.745 25.5599 5.4
      vertex 34.7392 25.6671 6
      vertex 34.7392 25.6671 5.4
    endloop
  endfacet
  facet normal -0.99854 -0.0540255 0
    outer loop
      vertex 34.7392 25.6671 6
      vertex 34.745 25.5599 5.4
      vertex 34.745 25.5599 6
    endloop
  endfacet
  facet normal -0.998206 -0.0598752 0
    outer loop
      vertex 34.752 25.4432 5.4
      vertex 34.745 25.5599 6
      vertex 34.745 25.5599 5.4
    endloop
  endfacet
  facet normal -0.998206 -0.0598752 0
    outer loop
      vertex 34.745 25.5599 6
      vertex 34.752 25.4432 5.4
      vertex 34.752 25.4432 6
    endloop
  endfacet
  facet normal 0.845774 0.533541 0
    outer loop
      vertex 34.752 25.4432 6
      vertex 33.0984 28.0645 5.4
      vertex 33.0984 28.0645 6
    endloop
  endfacet
  facet normal 0.845774 0.533541 0
    outer loop
      vertex 33.0984 28.0645 5.4
      vertex 34.752 25.4432 6
      vertex 34.752 25.4432 5.4
    endloop
  endfacet
  facet normal 0 1 -0
    outer loop
      vertex 33.0984 28.0645 5.4
      vertex 32.6167 28.0645 6
      vertex 33.0984 28.0645 6
    endloop
  endfacet
  facet normal 0 1 0
    outer loop
      vertex 32.6167 28.0645 6
      vertex 33.0984 28.0645 5.4
      vertex 32.6167 28.0645 5.4
    endloop
  endfacet
  facet normal -1 0 0
    outer loop
      vertex 32.6167 25.007 5.4
      vertex 32.6167 28.0645 6
      vertex 32.6167 28.0645 5.4
    endloop
  endfacet
  facet normal -1 -0 0
    outer loop
      vertex 32.6167 28.0645 6
      vertex 32.6167 25.007 5.4
      vertex 32.6167 25.007 6
    endloop
  endfacet
  facet normal 0 -1 0
    outer loop
      vertex 32.6167 25.007 5.4
      vertex 32.9856 25.007 6
      vertex 32.6167 25.007 6
    endloop
  endfacet
  facet normal 0 -1 -0
    outer loop
      vertex 32.9856 25.007 6
      vertex 32.6167 25.007 5.4
      vertex 32.9856 25.007 5.4
    endloop
  endfacet
  facet normal 1 -0 0
    outer loop
      vertex 32.9856 25.007 6
      vertex 32.9856 27.0381 5.4
      vertex 32.9856 27.0381 6
    endloop
  endfacet
  facet normal 1 0 0
    outer loop
      vertex 32.9856 27.0381 5.4
      vertex 32.9856 25.007 6
      vertex 32.9856 25.007 5.4
    endloop
  endfacet
  facet normal 0 -1 0
    outer loop
      vertex 36.9489 27.726 5.4
      vertex 37.9992 27.726 6
      vertex 36.9489 27.726 6
    endloop
  endfacet
  facet normal 0 -1 -0
    outer loop
      vertex 37.9992 27.726 6
      vertex 36.9489 27.726 5.4
      vertex 37.9992 27.726 5.4
    endloop
  endfacet
  facet normal 1 -0 0
    outer loop
      vertex 37.9992 27.726 6
      vertex 37.9992 28.0645 5.4
      vertex 37.9992 28.0645 6
    endloop
  endfacet
  facet normal 1 0 0
    outer loop
      vertex 37.9992 28.0645 5.4
      vertex 37.9992 27.726 6
      vertex 37.9992 27.726 5.4
    endloop
  endfacet
  facet normal 0 1 -0
    outer loop
      vertex 37.9992 28.0645 5.4
      vertex 35.4863 28.0645 6
      vertex 37.9992 28.0645 6
    endloop
  endfacet
  facet normal 0 1 0
    outer loop
      vertex 35.4863 28.0645 6
      vertex 37.9992 28.0645 5.4
      vertex 35.4863 28.0645 5.4
    endloop
  endfacet
  facet normal -1 0 0
    outer loop
      vertex 35.4863 27.726 5.4
      vertex 35.4863 28.0645 6
      vertex 35.4863 28.0645 5.4
    endloop
  endfacet
  facet normal -1 -0 0
    outer loop
      vertex 35.4863 28.0645 6
      vertex 35.4863 27.726 5.4
      vertex 35.4863 27.726 6
    endloop
  endfacet
  facet normal 0 -1 0
    outer loop
      vertex 35.4863 27.726 5.4
      vertex 36.5366 27.726 6
      vertex 35.4863 27.726 6
    endloop
  endfacet
  facet normal 0 -1 -0
    outer loop
      vertex 36.5366 27.726 6
      vertex 35.4863 27.726 5.4
      vertex 36.5366 27.726 5.4
    endloop
  endfacet
  facet normal -1 0 0
    outer loop
      vertex 36.5366 25.007 5.4
      vertex 36.5366 27.726 6
      vertex 36.5366 27.726 5.4
    endloop
  endfacet
  facet normal -1 -0 0
    outer loop
      vertex 36.5366 27.726 6
      vertex 36.5366 25.007 5.4
      vertex 36.5366 25.007 6
    endloop
  endfacet
  facet normal 0 -1 0
    outer loop
      vertex 36.5366 25.007 5.4
      vertex 36.9489 25.007 6
      vertex 36.5366 25.007 6
    endloop
  endfacet
  facet normal 0 -1 -0
    outer loop
      vertex 36.9489 25.007 6
      vertex 36.5366 25.007 5.4
      vertex 36.9489 25.007 5.4
    endloop
  endfacet
  facet normal 1 -0 0
    outer loop
      vertex 36.9489 25.007 6
      vertex 36.9489 27.726 5.4
      vertex 36.9489 27.726 6
    endloop
  endfacet
  facet normal 1 0 0
    outer loop
      vertex 36.9489 27.726 5.4
      vertex 36.9489 25.007 6
      vertex 36.9489 25.007 5.4
    endloop
  endfacet
endsolid OpenSCAD_Model
